<?xml version="1.0" encoding="UTF-8" standalone="no"?>
<!DOCTYPE svg PUBLIC "-//W3C//DTD SVG 1.1//EN" "http://www.w3.org/Graphics/SVG/1.1/DTD/svg11.dtd">
<svg version="1.1" xmlns="http://www.w3.org/2000/svg" xmlns:xlink="http://www.w3.org/1999/xlink" preserveAspectRatio="xMidYMid meet" viewBox="-0.5230938885971195 0.04242328894758063 22.044848309818985 27.91230676747376" width="18.04" height="23.91"><defs><path d="M2.6 1.04C1.46 1.04 0.52 1.94 0.48 3.07C0.48 5.13 0.48 21.54 0.48 23.6C0.47 23.92 0.56 24.24 0.74 24.51C0.94 24.79 1.26 24.96 1.6 24.95C1.97 24.94 2.32 24.79 2.59 24.54C3.21 24.01 8.17 19.8 8.79 19.27C9.24 18.93 9.86 18.93 10.3 19.27C10.92 19.8 15.87 24.01 16.49 24.54C16.75 24.79 17.09 24.94 17.45 24.95C17.99 24.95 18.52 24.53 18.52 23.6C18.52 21.54 18.52 5.13 18.52 3.07C18.51 1.95 17.6 1.05 16.48 1.04C16.48 1.04 3.99 1.04 2.6 1.04Z" id="d1vFfPdpeT"></path></defs><g><g><use xlink:href="#d1vFfPdpeT" opacity="1" fill="#ffffff" fill-opacity="1"></use><g><use xlink:href="#d1vFfPdpeT" opacity="1" fill-opacity="0" stroke="#48a9c5" stroke-width="1" stroke-opacity="1"></use></g></g></g></svg>