<svg xmlns="http://www.w3.org/2000/svg" width="19.328" height="16.783" viewBox="0 0 19.328 16.783">
  <g id="Email_Icon" transform="translate(-158.7 -384.004)" opacity="0.805">
    <g id="Group_680" data-name="Group 680" transform="translate(159.2 383.504)">
      <path id="Path_1249" data-name="Path 1249" d="M1.759,4.336q.348.24,2.1,1.424t2.68,1.823q.1.07.435.3t.552.38q.22.145.532.325a3.12,3.12,0,0,0,.588.269,1.655,1.655,0,0,0,.511.09h.021a1.657,1.657,0,0,0,.511-.09,3.123,3.123,0,0,0,.588-.269q.312-.18.532-.325t.552-.38q.332-.235.435-.3l4.787-3.247a4.8,4.8,0,0,0,1.248-1.229,2.6,2.6,0,0,0,.5-1.508A1.514,1.514,0,0,0,17.842.47,1.6,1.6,0,0,0,16.692,0H1.636A1.476,1.476,0,0,0,.424.519,1.986,1.986,0,0,0,0,1.818,2.3,2.3,0,0,0,.563,3.182,5.023,5.023,0,0,0,1.759,4.336Z" transform="translate(0 1)" fill="none" stroke="#b2b2b2" stroke-width="1"/>
    </g>
    <g id="Group_681" data-name="Group 681" transform="translate(159.2 390.824)">
      <path id="Path_1250" data-name="Path 1250" d="M17.305.863q-3.354,2.2-5.093,3.422-.583.416-.946.65a5.909,5.909,0,0,1-.967.476,3.021,3.021,0,0,1-1.125.243H9.154a3.022,3.022,0,0,1-1.125-.243,5.911,5.911,0,0,1-.967-.476Q6.7,4.7,6.116,4.285,4.736,3.3,1.033.863A5.375,5.375,0,0,1,0,0V7.875A1.505,1.505,0,0,0,.481,9a1.6,1.6,0,0,0,1.156.466H16.692A1.6,1.6,0,0,0,17.848,9a1.5,1.5,0,0,0,.481-1.121V0A5.593,5.593,0,0,1,17.305.863Z" fill="none" stroke="#b2b2b2" stroke-width="1"/>
    </g>
  </g>
</svg>
