<svg xmlns="http://www.w3.org/2000/svg" width="136.568" height="86.867" viewBox="0 0 136.568 86.867">
  <g id="Hand" transform="translate(0 -50.155)">
    <g id="Group_695" data-name="Group 695" transform="translate(91.963 52.206)">
      <path id="Path_1280" data-name="Path 1280" d="M345.7,257.683l6.619-20.326a5.62,5.62,0,0,1,10.712,3.407l-2.191,7.056a2,2,0,0,1-.511.836l-11.336,11.073a2,2,0,0,1-3.292-2.046Z" transform="translate(-345.598 -222.84)" fill="#db9975"/>
      <path id="Path_1281" data-name="Path 1281" d="M347.593,260.38a2,2,0,0,1-1.9-2.614l6.619-20.326a5.585,5.585,0,0,1,4.76-3.853l-7.164,25.323-.923.9A1.994,1.994,0,0,1,347.593,260.38Z" transform="translate(-345.598 -222.922)" fill="#f7b081"/>
      <path id="Path_1282" data-name="Path 1282" d="M388.29,233.255l4.4-14.165a5.468,5.468,0,1,1,10.424,3.3l-3.188,9.859a2,2,0,0,1-3.326.78,1.9,1.9,0,0,0-2.68-.031l-2.327,2.273a2,2,0,0,1-3.3-2.02Z" transform="translate(-376.864 -209.458)" fill="#db9975"/>
      <path id="Path_1283" data-name="Path 1283" d="M362,238.691l15.179-19.105a1.9,1.9,0,0,0-.128-2.5,2,2,0,0,1-.471-2.009l5.742-17.753a5.508,5.508,0,0,1,10.519,3.273l-3.085,10.32A47.621,47.621,0,0,1,373,235.218l-8.219,6.3A2,2,0,0,1,362,238.691Z" transform="translate(-357.319 -193.508)" fill="#db9975"/>
      <path id="Path_1284" data-name="Path 1284" d="M388.29,233.37l4.4-14.165a5.461,5.461,0,0,1,4.57-3.807l-5.9,20.18a1.994,1.994,0,0,1-3.072-2.209Z" transform="translate(-376.864 -209.573)" fill="#f7b081"/>
      <path id="Path_1285" data-name="Path 1285" d="M363.849,241.942A1.993,1.993,0,0,1,362,238.728l15.179-19.105a1.9,1.9,0,0,0-.128-2.5,2,2,0,0,1-.471-2.009l5.742-17.753a5.532,5.532,0,0,1,4.961-3.8l-9.83,31.408Z" transform="translate(-357.32 -193.545)" fill="#f7b081"/>
    </g>
    <path id="Path_1286" data-name="Path 1286" d="M275.176,249.74c.038-.4,1-9.843,6.382-17.489A32.029,32.029,0,0,1,294.8,221.609l13.378-13.067a5.893,5.893,0,0,1,8.325.1q.115.118.222.241a5.468,5.468,0,0,1,.025,7.024l-16.59,20.37,14.164-14.04a20.459,20.459,0,0,0,5.117-8.4l2.309-7.358,0,0c.28-.778.544-1.564.783-2.361l4.214-14.095.013-.042a6.028,6.028,0,0,1,11.5,3.629l-6.306,20.463c-.322,1.045-.642,2.111-.966,3.191-2.9,9.676-6.2,20.642-14.133,27.122l-14.691,12v14.294a2,2,0,0,1-2,2H277.163a2,2,0,0,1-2-2V249.931C275.167,249.868,275.17,249.8,275.176,249.74Z" transform="translate(-201.946 -135.648)" fill="#ffc89f"/>
    <g id="Group_696" data-name="Group 696" transform="translate(96.734 72.252)">
      <path id="Path_1287" data-name="Path 1287" d="M381.594,276.847a5.467,5.467,0,0,0-.025-7.024q-.107-.123-.222-.241a5.881,5.881,0,0,0-.88-.739l-15.945,20.171c-1.49,1.876-1.279,6.58.483,8.2Z" transform="translate(-363.529 -268.843)" fill="#ffb98a"/>
      <path id="Path_1288" data-name="Path 1288" d="M369.072,375.47Z" transform="translate(-367.597 -347.096)" fill="#ffb98a"/>
    </g>
    <path id="Path_1289" data-name="Path 1289" d="M393.023,189.112a6.02,6.02,0,0,0-3.674-2.647L381.376,212.3c-3.161,10.257-6.141,21.768-14.454,28.557l-16.222,12.6v19.7h4.888a2,2,0,0,0,2-2V256.866l14.691-12c7.936-6.48,11.228-17.447,14.133-27.122.324-1.08.644-2.146.966-3.191l6.306-20.463A6.023,6.023,0,0,0,393.023,189.112Z" transform="translate(-257.38 -136.134)" fill="#ffb98a"/>
    <g id="Group_697" data-name="Group 697" transform="translate(8.85 52.206)">
      <path id="Path_1290" data-name="Path 1290" d="M118.759,257.683l-6.619-20.326a5.62,5.62,0,0,0-10.712,3.407l2.191,7.056a2,2,0,0,0,.511.836l11.336,11.073a2,2,0,0,0,3.292-2.046Z" transform="translate(-83.103 -222.84)" fill="#db9975"/>
      <path id="Path_1291" data-name="Path 1291" d="M133.973,260.38a2,2,0,0,0,1.9-2.614l-6.619-20.326a5.585,5.585,0,0,0-4.76-3.853l7.164,25.323.923.9A1.994,1.994,0,0,0,133.973,260.38Z" transform="translate(-100.215 -222.922)" fill="#f7b081"/>
      <path id="Path_1292" data-name="Path 1292" d="M83.076,233.255l-4.4-14.165a5.468,5.468,0,1,0-10.424,3.3l3.188,9.859a2,2,0,0,0,3.326.78,1.9,1.9,0,0,1,2.68-.031l2.327,2.273a2,2,0,0,0,3.3-2.02Z" transform="translate(-58.748 -209.458)" fill="#db9975"/>
      <path id="Path_1293" data-name="Path 1293" d="M64.331,238.691,49.152,219.586a1.9,1.9,0,0,1,.128-2.5,2,2,0,0,0,.471-2.009l-5.742-17.753a5.508,5.508,0,0,0-10.519,3.273l3.085,10.32a47.621,47.621,0,0,0,16.759,24.3l8.219,6.3a2,2,0,0,0,2.777-2.826Z" transform="translate(-33.26 -193.508)" fill="#db9975"/>
      <path id="Path_1294" data-name="Path 1294" d="M99.95,233.37l-4.4-14.165a5.461,5.461,0,0,0-4.57-3.807l5.9,20.18a1.994,1.994,0,0,0,3.072-2.209Z" transform="translate(-75.622 -209.573)" fill="#f7b081"/>
      <path id="Path_1295" data-name="Path 1295" d="M78.45,241.942a1.993,1.993,0,0,0,1.846-3.214L65.116,219.623a1.9,1.9,0,0,1,.128-2.5,2,2,0,0,0,.471-2.009l-5.742-17.753a5.532,5.532,0,0,0-4.961-3.8l9.83,31.408Z" transform="translate(-49.225 -193.545)" fill="#f7b081"/>
    </g>
    <path id="Path_1296" data-name="Path 1296" d="M63.337,249.74c-.038-.4-1-9.843-6.382-17.489a32.029,32.029,0,0,0-13.238-10.643L30.339,208.541a5.893,5.893,0,0,0-8.325.1q-.115.118-.222.241a5.468,5.468,0,0,0-.025,7.024l16.59,20.37-14.164-14.04a20.459,20.459,0,0,1-5.117-8.4l-2.309-7.358,0,0c-.28-.778-.544-1.564-.783-2.361l-4.214-14.095-.013-.042a6.028,6.028,0,0,0-11.5,3.629l6.306,20.463c.322,1.045.642,2.111.966,3.191,2.9,9.676,6.2,20.642,14.133,27.122l14.691,12v14.294a2,2,0,0,0,2,2H61.35a2,2,0,0,0,2-2V249.931A1.912,1.912,0,0,0,63.337,249.74Z" transform="translate(0 -135.648)" fill="#ffc89f"/>
    <path id="Path_1297" data-name="Path 1297" d="M117.054,290.349a32.029,32.029,0,0,0-13.238-10.643L90.438,266.639a5.893,5.893,0,0,0-8.325.1q-.115.118-.222.241l0,0,16.088,16.562a29.943,29.943,0,0,1,12.714,10.085c5.139,7.3,6.027,16.531,6.027,16.531v20.61h4.73a2,2,0,0,0,2-2V308.029q0-.1-.009-.191C123.4,307.439,122.435,297.994,117.054,290.349Z" transform="translate(-60.099 -193.745)" fill="#ffb98a"/>
  </g>
</svg>
