<svg xmlns="http://www.w3.org/2000/svg" width="53.666" height="47.324" viewBox="0 0 53.666 47.324">
  <g id="Heart" transform="translate(-27.086 -26.122)">
    <path id="Path_1275" data-name="Path 1275" d="M155.278,14.489a15.755,15.755,0,0,0-4.806-9.833,14.264,14.264,0,0,0-8.525-3.628,15.95,15.95,0,0,0-8.893,1.832,12.359,12.359,0,0,0-4.431,4,12.359,12.359,0,0,0-4.431-4A15.945,15.945,0,0,0,115.3,1.028a14.264,14.264,0,0,0-8.525,3.628,15.754,15.754,0,0,0-4.806,9.833,21.4,21.4,0,0,0,3.044,13.789,42.074,42.074,0,0,0,9.117,10.569,72,72,0,0,0,13.925,9.318,1.3,1.3,0,0,0,1.14,0,72,72,0,0,0,13.925-9.318,42.081,42.081,0,0,0,9.117-10.569A21.4,21.4,0,0,0,155.278,14.489Z" transform="translate(-74.704 25.15)" fill="#ff8052"/>
    <g id="Group_693" data-name="Group 693" transform="translate(50.771 26.122)">
      <path id="Path_1276" data-name="Path 1276" d="M267.906,14.491A15.755,15.755,0,0,0,263.1,4.657a14.263,14.263,0,0,0-8.525-3.628,16.241,16.241,0,0,0-4.5.255A14.01,14.01,0,0,1,256.8,4.658a15.755,15.755,0,0,1,4.806,9.833,21.4,21.4,0,0,1-3.044,13.789A42.074,42.074,0,0,1,249.45,38.85,73.114,73.114,0,0,1,238.1,46.787c1.505.854,2.473,1.329,2.578,1.38a1.3,1.3,0,0,0,1.139,0,72,72,0,0,0,13.925-9.318,42.082,42.082,0,0,0,9.117-10.569A21.4,21.4,0,0,0,267.906,14.491Z" transform="translate(-238.103 -0.974)" fill="#e26e44"/>
    </g>
  </g>
</svg>
