<svg xmlns="http://www.w3.org/2000/svg" width="19.328" height="28.859" viewBox="0 0 19.328 28.859">
  <path id="Lock" d="M81.5,12.463H69.4v-5.5a4.765,4.765,0,0,1,9.531,0v2.2a1.1,1.1,0,1,0,2.2,0v-2.2a6.965,6.965,0,1,0-13.93,0v5.5h-.367A1.833,1.833,0,0,0,65,14.3v11.73a1.833,1.833,0,0,0,1.833,1.833H81.5a1.833,1.833,0,0,0,1.833-1.833V14.3A1.833,1.833,0,0,0,81.5,12.463Zm-9.531,6.232a2.2,2.2,0,1,1,3.3,1.9v3.227h-2.2V20.6A2.2,2.2,0,0,1,71.965,18.695Z" transform="translate(-64.5 0.5)" fill="none" stroke="#b2b2b2" stroke-width="1"/>
</svg>
