<svg xmlns="http://www.w3.org/2000/svg" xmlns:xlink="http://www.w3.org/1999/xlink" width="153.916" height="126.654" viewBox="0 0 153.916 126.654">
  <defs>
    <clipPath id="clip-path">
      <path id="Path_261" data-name="Path 261" d="M68.688-288.992a1.194,1.194,0,0,0-1.016.485c-.266.384-.364.493.013.846.133.124.286.227.429.339l-.012.03-.86-.2-.243.305a15.489,15.489,0,0,0,1.683.478c-.065-.164-.1-.275-.152-.38a.809.809,0,0,1,.042-.919,1.43,1.43,0,0,1,.375-.336c.291-.168.6-.308.92-.469-.06-.031-.113-.064-.169-.087A2.451,2.451,0,0,0,68.688-288.992Z" transform="translate(-67 289)" fill="none"/>
    </clipPath>
    <clipPath id="clip-path-2">
      <path id="Path_260" data-name="Path 260" d="M57-178.316H175.124V-293H57Z" transform="translate(-57 293)" fill="none"/>
    </clipPath>
    <clipPath id="clip-path-3">
      <path id="Path_255" data-name="Path 255" d="M73.127-288h0c-.172,0-.344.028-.519.03-.207,0-.413-.011-.62,0a3.274,3.274,0,0,0-1.718.562.653.653,0,0,0-.256.358.553.553,0,0,0,.19.516,1.527,1.527,0,0,0,1.218.226.539.539,0,0,0,.329-.138.278.278,0,0,0,0-.355.425.425,0,0,0-.37-.138.666.666,0,0,0-.458.337.25.25,0,0,1,.014-.219A.575.575,0,0,1,71.09-287a1.411,1.411,0,0,1,.572-.276.641.641,0,0,1,.439.027.343.343,0,0,1,.179.249.666.666,0,0,1-.13.371v0c0,.06.047.071.109.061h0c.252-.087.493-.2.737-.3.162-.067.567-.147.4-.387a1.3,1.3,0,0,0-.114-.124.577.577,0,0,1-.144-.3.865.865,0,0,1,.015-.165C73.165-287.91,73.166-287.976,73.127-288Z" transform="translate(-70 288)" fill="none"/>
    </clipPath>
    <clipPath id="clip-path-5">
      <path id="Path_249" data-name="Path 249" d="M65.522-283.469c-.027.12-.043.226.107.318a7.837,7.837,0,0,1,.7.506c.154.121.183.112.32-.024a8.961,8.961,0,0,1,.683-.612c.288-.232.6-.436.886-.672.229-.189.432-.405.64-.614a4.2,4.2,0,0,0,.822-1.132.876.876,0,0,0,.053-.3c-.008.082-.484.264-.567.3a4.888,4.888,0,0,1-.644.232,5.273,5.273,0,0,1-1.367.2,5.423,5.423,0,0,1-2.567-.672.42.42,0,0,0-.524.145.661.661,0,0,0-.03.5c.08.222.167.442.249.663.108.288.214.576.323.864a.129.129,0,0,0,.049.068c.2.107.4.21.617.325a1.957,1.957,0,0,0-.5-1.666,5.131,5.131,0,0,1,.565.374.737.737,0,0,1,.308.717C65.619-283.792,65.559-283.632,65.522-283.469Zm-.907-2.1a1.838,1.838,0,0,1,.3.113,5.623,5.623,0,0,0,1.533.639,4.493,4.493,0,0,0,1.5.082c.21-.02.417-.074.654-.118a.866.866,0,0,1-.547.45,2.618,2.618,0,0,1-.916.185,2.173,2.173,0,0,1-1.414-.489C65.38-285.014,64.989-285.275,64.615-285.574Z" transform="translate(-64 286)" fill="none"/>
    </clipPath>
    <clipPath id="clip-path-7">
      <path id="Path_252" data-name="Path 252" d="M77.448-278.422a5.577,5.577,0,0,0,1.454-1.034c.244-.2.491-.4.749-.59a5.86,5.86,0,0,1,1.722-.822c.221-.067.271-.195.15-.391-.094-.153-.209-.294-.312-.442a3.856,3.856,0,0,0-.831-.791c-.286-.224-.907-.675-1.277-.447a1.243,1.243,0,0,0-.39.481A20.585,20.585,0,0,1,77-279.576c.5.246.538.673.382,1.163A.381.381,0,0,0,77.448-278.422Z" transform="translate(-77 283)" fill="none"/>
    </clipPath>
    <clipPath id="clip-path-9">
      <path id="Path_258" data-name="Path 258" d="M58.15-277.536a.7.7,0,0,0,.093.056c.184.092.369.183.554.271h0l.042.016c.329.126.657.258.974.412l.011,0a2.939,2.939,0,0,1,.985.6l.081.086,0,0c.424.372.778.812,1.171,1.222a1.464,1.464,0,0,0,1.454.406c.462-.1.907-.279,1.361-.423l0-.043c-.334-.134-.676-.251-1-.408a8.981,8.981,0,0,1-2.271-1.549,8.454,8.454,0,0,1-.836-.918c-.258-.33-.469-.685-.7-1.029-.064-.094-.132-.208-.281-.159a4.688,4.688,0,0,0-1.235.546,1.453,1.453,0,0,0-.533.515v0a.339.339,0,0,0,.006.229.423.423,0,0,0,.126.159Z" transform="translate(-58 279)" fill="none"/>
    </clipPath>
    <clipPath id="clip-path-11">
      <path id="Path_264" data-name="Path 264" d="M61.554-286.139a.209.209,0,0,0,.071.023c.212.021.425.034.636.063.191.026.381.065.569.105.132.029.261.069.409.109a.624.624,0,0,0-.011-.1,15.9,15.9,0,0,1-.564-1.732.761.761,0,0,1,.007-.475.547.547,0,0,1,.505-.282c.2,0,.368.137.56.132a.62.62,0,0,0,.466-.321c.128-.214.174-.467.28-.692a1.4,1.4,0,0,1,.671-.657,1.606,1.606,0,0,1,.972-.062.633.633,0,0,0,.42-.1c.51-.366-.145-.631-.434-.741a2.287,2.287,0,0,0-1.525,0,4.181,4.181,0,0,0-1.675,1.183c-.47.507-.874,1.074-1.335,1.59a3.038,3.038,0,0,0-.473.613A1.016,1.016,0,0,0,61.554-286.139Z" transform="translate(-61 291)" fill="none"/>
    </clipPath>
    <clipPath id="clip-path-13">
      <path id="Path_267" data-name="Path 267" d="M61.987-281.237a7.334,7.334,0,0,1,1.2.361,4.537,4.537,0,0,1,.567.277,3.181,3.181,0,0,1,.465.371c.029.025.089.051.044.083a1.925,1.925,0,0,1-.346-.147q-.182-.073-.366-.14-.369-.133-.747-.239a12.044,12.044,0,0,0-1.474-.294.915.915,0,0,1-.351-.067.282.282,0,0,0,.009.048l0,0a7.26,7.26,0,0,0,.857,1.216,13.165,13.165,0,0,0,.97,1.071,13.411,13.411,0,0,0,1.106.98q.293.232.6.448c.195.137.394.244.6.366a5.124,5.124,0,0,0,1.355.552,2.985,2.985,0,0,0,3.14-1.127c.12-.219.242-.858-.035-1.045a.3.3,0,0,0-.118-.046,14.517,14.517,0,0,1-5.522-2.614c-.209-.119-.422-.23-.641-.331a5.191,5.191,0,0,0-1.467-.445,3.156,3.156,0,0,0-1.445.09.77.77,0,0,0-.388.243,6.735,6.735,0,0,0,.983.194C61.318-281.37,61.655-281.311,61.987-281.237Z" transform="translate(-60 282)" fill="none"/>
    </clipPath>
    <clipPath id="clip-path-15">
      <path id="Path_270" data-name="Path 270" d="M72.311-289.908a5.42,5.42,0,0,0,.748-.031c.366-.087.671-.3,1.048-.357a1.921,1.921,0,0,1,1.28.2c.344.2.682.414,1.021.624a.874.874,0,0,1,.116.12,2.67,2.67,0,0,1-.369-.069c-.311-.109-.612-.252-.93-.335a2.268,2.268,0,0,0-.606-.009c.02.1.08.138.151.211a1.72,1.72,0,0,1,.22.277,1.693,1.693,0,0,1,.249.654,1.689,1.689,0,0,1-.053.741,7.61,7.61,0,0,1-.323.714c-.077.185-.156.369-.216.558a1.27,1.27,0,0,0,.156.955c.026.055.06.108.092.165a4.558,4.558,0,0,1,.294-.747c.136-.242.3-.47.45-.7a2.861,2.861,0,0,0,.537-1.245c.018-.178.054-.382.279-.394a1.955,1.955,0,0,1,.118.592c0,.008,0,.016,0,.023.051.48-.379.86-.629,1.222a5.9,5.9,0,0,0-.691,1.306q-.036.1-.067.2a6.321,6.321,0,0,0-.2.834c-.025.144-.047.288-.067.433a1.414,1.414,0,0,0-.049.422c.04-.008.072-.086.088-.123.108-.241.2-.49.323-.722.28-.525.564-1.048.848-1.57s.645-.968.97-1.453a3.142,3.142,0,0,0,.63-1.656,1.454,1.454,0,0,0-.9-1.419,10.665,10.665,0,0,0-2.49-.492c-.855-.059-2.118-.043-2.34,1C71.991-289.935,72.13-289.914,72.311-289.908Z" transform="translate(-72 291)" fill="none"/>
    </clipPath>
    <clipPath id="clip-path-17">
      <path id="Path_273" data-name="Path 273" d="M70.084-279.576c.518.3,1.051.572,1.585.839a1.625,1.625,0,0,0,.565.173.817.817,0,0,0,.528-.118,1.324,1.324,0,0,0,.462-.673,3.566,3.566,0,0,0,.214-1.341c-.01-.326-.044-1.038-.3-1.263-.113-.1-.148,0-.265.1a7.723,7.723,0,0,1-1.451.826C71.219-280.932,69.621-279.845,70.084-279.576Z" transform="translate(-70 282)" fill="none"/>
    </clipPath>
    <clipPath id="clip-path-19">
      <path id="Path_279" data-name="Path 279" d="M70.15-282.922a1.554,1.554,0,0,0,.181-.214,3.981,3.981,0,0,1,.756-.71,6.773,6.773,0,0,1,.842-.4,3.785,3.785,0,0,0,1.542-1.216,3.629,3.629,0,0,0,.493-1.324,1.416,1.416,0,0,0,0-.725c-.073-.219-.595-.677-.825-.4-.148.179.1.54.116.733a2.086,2.086,0,0,1-.243,1.111,4.529,4.529,0,0,1-1.215,1.356c-.358.293-.732.568-1.071.882-.293.271-.677.574-.73.991,0-.022.119-.06.14-.076Z" transform="translate(-70 288)" fill="none"/>
    </clipPath>
    <clipPath id="clip-path-21">
      <path id="Path_381" data-name="Path 381" d="M129.38-115.357c-.393-.027-.818-.06-1.273-.069-.909-.032-1.936-.061-3.057-.064s-2.336.033-3.613.1l-.971.052-.99.064-1.241.091,0-.041.017-.185c0-.065.025-.137.037-.21l.045-.23.073-.241.038-.126c.014-.042.033-.083.05-.125l.106-.259a4.74,4.74,0,0,1,.29-.51,4.684,4.684,0,0,1,.366-.488,4.746,4.746,0,0,1,.441-.424,4.708,4.708,0,0,1,.48-.355l.25-.139c.041-.022.081-.047.122-.067l.125-.054.24-.1.233-.074a2.806,2.806,0,0,1,.415-.105l.176-.037.151-.016.289-.03h-.445l-.18.019a2.92,2.92,0,0,0-.432.063l-.246.051-.257.081-.135.043c-.045.016-.088.037-.133.055l-.276.118a4.963,4.963,0,0,0-.543.321,5,5,0,0,0-.518.4,5.074,5.074,0,0,0-.45.487,5.105,5.105,0,0,0-.375.529l-.147.275c-.023.045-.049.089-.07.135l-.057.137-.109.264-.078.256c-.023.083-.053.159-.067.239l-.045.227-.031.161-.15.011-1.045.077c-.351.026-.7.055-1.06.072l-.839.049a.958.958,0,0,0-.041-.122l-.039-.1-.051-.1a1.989,1.989,0,0,0-.124-.207,1.924,1.924,0,0,0-.161-.195,1.844,1.844,0,0,0-.188-.173,1.861,1.861,0,0,0-.209-.138,1.89,1.89,0,0,0-.214-.1,1.8,1.8,0,0,0-.209-.063l-.1-.021-.092-.011a1.054,1.054,0,0,0-.159-.009.735.735,0,0,0-.122,0l-.1.01.1.02a.681.681,0,0,1,.114.03.988.988,0,0,1,.143.051l.079.034.08.044a1.6,1.6,0,0,1,.162.106,1.639,1.639,0,0,1,.151.137,1.56,1.56,0,0,1,.133.157,1.542,1.542,0,0,1,.1.174,1.51,1.51,0,0,1,.076.176,1.478,1.478,0,0,1,.043.17l.014.078.006.074c0,.005,0,.009,0,.014l-.714.041-2.2.127-2.221.162c-1.483.081-2.969.152-4.429.121-.73-.019-1.454-.05-2.168-.1-.357-.023-.711-.058-1.063-.1s-.7-.079-1.045-.125l-1.027-.133-.341-.048.008-.009.219-.009.113-.191.214-.044.083-.206.206-.074.055-.215.2-.1.031-.22.185-.12.011-.222.173-.136-.008-.222.162-.149-.024-.221.151-.161-.04-.218.129-.212-.232.083-.2-.087-.187.114-.206-.073-.178.128-.211-.056-.166.143-.215-.036-.151.159-.218-.012-.132.176-.217.016-.108.192-.213.046-.08.206-.2.077-.049.216-.191.107-.017.221-.173.134.014.221-.154.157.043.217-.117.157c-.31-.036-.617-.069-.921-.1-1.273-.128-2.488-.158-3.607-.192s-2.149,0-3.059.024c-.456.008-.879.038-1.271.062s-.752.051-1.077.08c-1.3.1-2.045.208-2.045.208v.14s.742.119,2.041.246c.325.035.684.066,1.076.1s.816.06,1.265.1c.9.083,1.914.146,3.02.227.553.043,1.13.085,1.726.122l.911.059c.309.019.623.036.941.049.635.028,1.293.038,1.967.04s1.361,0,2.062-.023c1.4-.016,2.843-.05,4.307.008l.55.02.552.015q.553.018,1.108.045l1.113.065,1.116.078c1.5.076,2.973.183,4.443.186l2.188-.008c.361,0,.719-.007,1.075-.02l1.059-.034c.2-.008.409-.013.611-.02v.02l-.13.121.028.176-.111.139.053.17-.089.154.077.16-.067.165.1.148-.045.173.115.135-.025.177.129.121-.007.178.14.109.008.178.148.1.021.177.154.086.064.191.069-.188.156-.082.026-.177.15-.094.013-.179.143-.1v-.179l.134-.117-.017-.178.122-.129-.035-.176.107-.143-.056-.17.088-.156-.079-.16.063-.168-.1-.145.035-.176-.126-.126,0-.1.192-.012.995-.071.966-.079,3.573-.321c.552-.06,1.086-.092,1.591-.136s.989-.09,1.44-.13c.9-.083,1.7-.142,2.349-.209,1.3-.126,2.062-.231,2.062-.231v-.14s-.766-.091-2.069-.193C130.157-115.307,129.773-115.33,129.38-115.357Zm-32.064.042c.083-.075.166-.156.256-.232l.134-.116.138-.114c.046-.037.092-.076.138-.112l.14-.107c.092-.073.187-.138.277-.2s.181-.123.266-.178l.124-.081.119-.07c.076-.045.146-.087.209-.122l.165-.086.143-.075-.135.09-.154.1c-.059.041-.123.09-.194.142l-.11.081-.114.092c-.078.063-.162.129-.244.2s-.169.146-.252.226l-.127.119c-.042.04-.083.083-.124.124l-.123.124-.119.127c-.079.083-.153.17-.225.251l-.017.02-.34-.043C97.2-115.2,97.257-115.259,97.316-115.315Zm21.394,1.685-.017.141c-.005.047-.012.095-.016.142s-.008.094-.012.141c-.009.093-.012.185-.017.275s-.005.176-.006.258c0,.041,0,.081,0,.12s0,.076,0,.112c0,.072,0,.138.007.2s.009.109.012.151l.011.132-.024-.13-.027-.149c-.009-.058-.017-.124-.027-.2l-.015-.112-.011-.12c-.008-.083-.017-.17-.02-.26s-.011-.184-.011-.279c0-.048,0-.1,0-.144s0-.1,0-.145,0-.1,0-.145c0-.021,0-.041,0-.062h.013l.166-.01Z" transform="translate(-85 119)" fill="none"/>
    </clipPath>
    <clipPath id="clip-path-22">
      <path id="Path_380" data-name="Path 380" d="M57-230.018h64.871V-293H57Z" transform="translate(-57 293)" fill="none"/>
    </clipPath>
    <clipPath id="clip-path-23">
      <path id="Path_384" data-name="Path 384" d="M69.188-259.155l-.128,0a1.114,1.114,0,0,0-.355.071,1.874,1.874,0,0,0-.481.294,3.65,3.65,0,0,0-.5.529,12,12,0,0,0-1.665,3.484c-.051.153-.1.306-.144.459-.009-.282-.015-.564-.033-.841l-.062-1.012-.071-.99-.079-.96-.181-2.009.183-.074.2.094.191-.111.213.063.171-.139.22.028.144-.166.222-.009.114-.187.218-.043.084-.2.21-.073.056-.211.2-.1.032-.216.188-.117.011-.218.176-.133-.008-.218.165-.146-.024-.217.154-.157-.041-.214.131-.208-.236.081-.2-.085-.19.112-.209-.072-.181.125-.214-.055-.169.14-.219-.035-.154.156-.221-.012-.134.173-.221.015-.11.188-.217.045-.081.2-.207.076-.05.211-.194.1-.017.216-.1.075-.022-.239c-.059-.55-.092-1.076-.136-1.578s-.09-.973-.13-1.422c-.083-.9-.142-1.669-.209-2.315-.126-1.291-.231-2.008-.231-2.008H64.5s-.091.716-.193,2.013c-.028.324-.052.66-.078,1.051s-.06.814-.069,1.267c-.032.9-.061,1.927-.064,3.042s.033,2.325.1,3.6q.026.477.052.966t.064.985l.15,2.029.077,1.04c.026.349.055.7.072,1.055q.062,1.062.125,2.147t.127,2.194l.161,2.21c.081,1.476.152,2.955.121,4.408-.015.566-.037,1.127-.071,1.684l-.179-.133-.021-.262-.234-.127-.06-.256-.251-.092-.1-.244-.262-.055-.133-.228-.267-.019-.162-.209-.268.014-.186-.189-.264.042-.2-.169-.259.066-.219-.151-.253.086-.229-.135-.247.1-.285-.1.158.251-.049.259.186.19-.03.262.2.177-.01.263.213.161.013.263.227.142.039.261.241.118.068.255.253.088.1.244.264.052.138.226.269.011.175.2.267-.034.206.169.257-.077.231.134.242-.114.249.1.042-.027s0,.008,0,.012c-.042.35-.079.7-.125,1.04l-.133,1.022-.141,1c-.074.549-.137,1.087-.191,1.618a4.25,4.25,0,0,0-.8-1.46,1.174,1.174,0,0,0-.522-.348.5.5,0,0,0-.1-.021.356.356,0,0,0-.074-.007H62.8l.061.008a.356.356,0,0,1,.071.015.446.446,0,0,1,.093.032,1.1,1.1,0,0,1,.448.388,4.331,4.331,0,0,1,.616,1.689,9.746,9.746,0,0,1,.136,1.253c-.05.824-.072,1.617-.1,2.366-.021,1.115,0,2.139.024,3.045.008.454.038.874.062,1.265s.051.749.08,1.072c.1,1.295.208,2.035.208,2.035h.14s.118-.738.245-2.031c.035-.323.066-.681.1-1.071s.06-.812.1-1.259c.029-.312.056-.639.081-.978.073.182.151.359.236.527a3.936,3.936,0,0,0,.635.945,1.883,1.883,0,0,0,.351.3,1.171,1.171,0,0,0,.321.148.65.65,0,0,0,.128.028.445.445,0,0,0,.1.009l.08,0-.079-.009a.464.464,0,0,1-.093-.018.622.622,0,0,1-.121-.039,1.118,1.118,0,0,1-.293-.171,1.791,1.791,0,0,1-.305-.314,3.759,3.759,0,0,1-.515-.962,7.767,7.767,0,0,1-.342-1.206c-.011-.053-.02-.106-.03-.159q.038-.535.078-1.1c.043-.551.085-1.124.122-1.718q.029-.446.059-.907c.019-.307.036-.619.049-.936.028-.633.039-1.287.04-1.958s0-1.354-.023-2.052c-.016-1.394-.05-2.83.008-4.286q.01-.273.02-.547t.015-.549q.018-.55.045-1.1l.065-1.107.078-1.11c.076-1.488.183-2.958.186-4.422q0-1.1-.008-2.178c0-.025,0-.05,0-.075.028-.2.057-.4.09-.606.053-.318.11-.647.177-.98s.139-.67.222-1a11.714,11.714,0,0,1,1.367-3.521,3.526,3.526,0,0,1,.445-.547,1.8,1.8,0,0,1,.443-.317,1.1,1.1,0,0,1,.341-.094Zm-3.509-1.86.136-.114.14-.111c.047-.037.093-.074.141-.11l.143-.105c.093-.071.19-.135.282-.2s.184-.12.27-.175l.126-.079.121-.069c.078-.044.148-.085.212-.119l.167-.085.145-.074-.137.088-.157.1c-.06.04-.125.088-.2.139l-.112.08-.116.09c-.08.062-.164.126-.247.2s-.172.143-.256.222l-.129.117c-.043.039-.084.081-.126.121l-.125.122-.12.124c-.081.081-.155.166-.229.246-.052.059-.1.114-.148.171q-.016-.183-.033-.362C65.51-260.868,65.591-260.943,65.679-261.014Zm-.945,22.667c-.09-.1-.179-.2-.277-.3l-.146-.15-.151-.148c-.051-.049-.1-.1-.153-.146l-.156-.141c-.1-.1-.208-.182-.309-.268s-.2-.165-.3-.24l-.141-.109-.136-.1c-.087-.061-.166-.12-.239-.168l-.19-.122-.166-.107.176.089.2.1c.077.041.162.091.256.144l.146.083.153.1c.1.066.217.134.327.211s.228.153.341.239l.173.127c.058.043.113.089.17.133l.169.134.164.138c.11.09.212.185.314.275l.058.054q-.019.226-.044.45C64.9-238.155,64.821-238.25,64.734-238.347Z" transform="translate(-61 269)" fill="none"/>
    </clipPath>
    <clipPath id="clip-path-25">
      <path id="Path_387" data-name="Path 387" d="M239.469-259.066a4.124,4.124,0,0,1,.249-.555,1.586,1.586,0,0,1,.279-.374.641.641,0,0,1,.256-.155c.069-.013.106-.017.106-.017s-.038,0-.108.011a.656.656,0,0,0-.27.144,1.622,1.622,0,0,0-.307.366,4.187,4.187,0,0,0-.285.549,14.585,14.585,0,0,0-.831,3.2c0,.026-.008.052-.012.079l-.031-.4q-.043-.482-.084-.953l-.341-3.525c-.062-.545-.1-1.07-.145-1.567s-.095-.971-.138-1.415c-.088-.889-.151-1.667-.222-2.307-.133-1.28-.241-2.013-.241-2.013H237.2s-.085.734-.176,2.022c-.026.322-.047.678-.07,1.067s-.053.808-.059,1.258c-.025.9-.047,1.913-.042,3.02.017,1.044.045,2.173.112,3.357l-.1-.025-.1-.193-.217-.023-.127-.177-.218.008-.152-.156-.214.04-.173-.132-.206.071-.191-.106-.195.1-.2-.08-.181.122-.211-.056-.166.141-.215-.035-.152.156-.218-.016-.139.167h-.219l-.128.177-.242.05.218.112.077.2.212.057.092.2.215.042.107.191.218.025.122.181.219.005.139.169.219-.018.157.152.215-.044.176.13.206-.074.194.1.192-.105.208.069.171-.136.217.033.146-.162.219,0,.091-.138c0,.049.006.1.009.145q.034.483.07.977l.162,2.012.083,1.031c.028.347.059.7.079,1.046q.068,1.053.138,2.129t.14,2.176q.087,1.093.174,2.192c.09,1.464.17,2.931.149,4.374-.014.721-.039,1.436-.086,2.142-.005.092-.013.182-.02.274l-.037-.034,0-.161-.133-.092-.021-.16-.146-.071-.044-.155-.155-.049-.066-.147-.16-.028-.085-.138-.162-.007-.1-.127-.162.01-.113-.116-.161.025-.123-.106-.158.038-.13-.1-.155.048-.166-.077.08.164-.046.155.1.128-.034.159.11.12-.022.161.119.111-.008.162.128.1.007.162.138.086.026.16.147.069.046.156.156.048.07.147.161.022.093.133.163-.005.114.116.16-.032.131.1.153-.055.144.076.042-.022c-.03.28-.06.559-.095.836l-.125,1.015q-.067.5-.132,1c-.083.657-.156,1.3-.209,1.931-.117,1.258-.139,2.458-.165,3.563-.01.81,0,1.57.023,2.272l-.016.059-.07.206a1.786,1.786,0,0,1-.079.2c-.03.066-.054.135-.088.2l-.1.188c-.033.062-.075.117-.111.176a1.216,1.216,0,0,1-.119.162,1.5,1.5,0,0,1-.125.147l-.131.128c-.045.038-.092.07-.136.1-.022.016-.043.034-.066.048l-.068.037-.127.068c-.085.028-.16.058-.223.074l-.205.033.21,0c.067-.007.146-.026.24-.044l.142-.052.077-.029c.026-.012.05-.026.076-.04.051-.029.106-.056.16-.09l.159-.116a1.62,1.62,0,0,0,.156-.137,1.4,1.4,0,0,0,.152-.155c.047-.056.1-.11.146-.171l.135-.186c.011-.015.02-.031.03-.047.011.446.043.86.069,1.244s.056.743.086,1.064c.111,1.285.219,2.019.219,2.019h.138s.112-.733.228-2.017c.032-.321.061-.676.091-1.063s.054-.806.094-1.25c.076-.889.132-1.891.2-2.984.038-.547.076-1.116.108-1.706l.025-.425.064.046.152-.058.146.072.14-.083.156.046.125-.1.162.021.108-.122.163,0,.09-.135.162-.022.075-.144.158-.038.06-.151.154-.052.047-.155.15-.064.036-.158.145-.075.023-.16.141-.115h-.183l-.121-.108-.159.034-.128-.1-.156.046-.135-.089-.151.059-.143-.076-.144.074-.151-.06-.135.09-.157-.041-.122.107-.161-.02-.105.123-.162,0-.08.128c0-.041,0-.081.005-.122.023-.628.029-1.278.026-1.943s-.014-1.344-.037-2.036c-.025-1.383-.068-2.808-.021-4.254q.008-.271.016-.543t.011-.545q.014-.546.037-1.095t.056-1.1q.035-.551.07-1.1c.065-1.478.161-2.937.153-4.39q-.011-1.091-.023-2.162c0-.357-.012-.711-.028-1.061s-.027-.7-.041-1.045c-.008-.171-.013-.342-.019-.512.024-.668.069-1.4.147-2.14A14.379,14.379,0,0,1,239.469-259.066Zm-2.563,2.4c-.1-.031-.211-.066-.321-.095l-.166-.046-.169-.041c-.057-.013-.113-.028-.17-.04l-.169-.035c-.112-.025-.224-.042-.331-.06s-.213-.032-.312-.045l-.145-.019-.136-.012c-.087-.007-.168-.015-.239-.019l-.185-.007-.161-.006.161-.011.185-.012c.072,0,.152,0,.241-.005l.138,0,.148,0c.1,0,.209,0,.319.013s.225.013.341.027l.175.018c.059.006.117.015.176.023l.176.024.174.029c.116.018.228.042.338.063l.018,0c.006.093.012.189.017.283Zm.817,19.544c-.048-.065-.1-.133-.149-.2l-.079-.1-.082-.1c-.028-.033-.055-.067-.083-.1l-.085-.1c-.055-.065-.114-.124-.17-.183s-.112-.113-.166-.165l-.078-.075-.076-.067c-.049-.043-.093-.083-.134-.117l-.107-.086-.093-.075.1.065.116.075c.044.03.092.065.146.1l.083.06.086.068c.059.046.123.095.184.149s.128.108.191.167l.1.089c.032.03.063.061.094.092l.094.093.091.095c.061.062.117.126.173.187l.006.007c-.009.087-.017.174-.027.261l0,.038C237.811-237,237.768-237.06,237.723-237.124Zm.792,5.809c.042-.015.084-.031.125-.044l.125-.04c.082-.028.165-.05.244-.073s.157-.041.23-.059l.107-.026.1-.02.176-.034.137-.02.119-.017-.116.03-.133.034c-.051.014-.108.033-.171.051l-.1.03-.1.036c-.07.025-.145.05-.22.082s-.154.06-.231.1l-.118.052c-.039.018-.078.037-.117.056l-.116.056-.009,0c0-.056,0-.114.008-.171Z" transform="translate(-233 268)" fill="none"/>
    </clipPath>
    <clipPath id="clip-path-27">
      <path id="Path_390" data-name="Path 390" d="M121.3-287.989l.138-.258c.047-.085.079-.175.118-.26a4.868,4.868,0,0,0,.19-.508c.03-.085.052-.17.073-.252l3.3-.286c.552-.057,1.086-.089,1.591-.131s.989-.086,1.44-.126c.9-.08,1.7-.137,2.348-.2,1.3-.121,2.063-.222,2.063-.222v-.135s-.766-.088-2.069-.186c-.326-.027-.709-.05-1.1-.076s-.818-.058-1.273-.066c-.909-.03-1.936-.059-3.057-.062s-2.336.032-3.613.1l-.971.05-.99.062-2.038.145-.91.065.013-.113.144-.144-.006-.159.128-.156-.032-.147.108-.165-.057-.132.087-.171-.08-.116.066-.173-.1-.1.046-.172-.114-.083.029-.169-.126-.069.014-.166-.136-.056v-.161l-.143-.045-.04-.164-.092.193-.167.114-.047.173-.162.124-.035.171-.156.133-.021.168-.148.141-.005.164-.138.15.013.157-.124.159.035.147-.107.167.059.132-.084.172.085.112-.057.172-2.006.112-2.2.122-2.221.156c-1.483.078-2.969.147-4.429.116-.73-.018-1.454-.048-2.168-.1-.357-.022-.711-.056-1.063-.1s-.7-.076-1.045-.121l-1.027-.129-1.008-.136c-.664-.086-1.315-.161-1.954-.218-.859-.083-1.691-.123-2.486-.151l.16-.056.056-.208.2-.1.031-.212.185-.115.01-.215.173-.131-.008-.215.162-.144-.024-.213.151-.155-.04-.211.129-.2-.232.08-.2-.084-.187.11-.206-.07-.178.124-.211-.054-.166.138-.215-.035-.151.154-.218-.011-.132.17-.217.015-.108.186-.213.044-.08.2-.2.075-.049.208-.19.1-.017.213-.173.129.014.213-.154.151.015.075c-.673,0-1.305.017-1.888.03-.456.008-.879.037-1.271.06s-.752.05-1.077.077c-1.3.1-2.045.2-2.045.2v.135s.742.114,2.041.237c.325.034.684.064,1.076.1s.816.058,1.265.1c.9.081,1.914.141,3.02.219.553.041,1.13.082,1.726.118l.911.057.1,0a6.134,6.134,0,0,1-1.453.478,13.681,13.681,0,0,1-1.713.252c-.236.021-.434.032-.572.04l-.217.01.218.007c.139,0,.337.008.575.006a13.806,13.806,0,0,0,1.747-.115,5.823,5.823,0,0,0,1.723-.455,1.673,1.673,0,0,0,.307-.192l.232.012c.635.027,1.293.037,1.967.039s1.361,0,2.061-.023c1.4-.015,2.843-.048,4.307.008l.55.02.552.014q.553.017,1.108.043l1.113.062,1.116.076c1.5.074,2.972.177,4.443.18l2.188-.008c.361,0,.719-.007,1.075-.02l1.059-.033.222-.007a2.35,2.35,0,0,0,.222.274l.15.164.176.16a4.283,4.283,0,0,0,.4.313,4.312,4.312,0,0,0,.472.264,4.269,4.269,0,0,0,.514.206,4.247,4.247,0,0,0,.536.121,2.417,2.417,0,0,0,.336.038l-.015.023-.166.22a2.432,2.432,0,0,1-.179.2l-.091.1c-.032.031-.066.059-.1.088-.067.057-.128.118-.2.169l-.2.143a1.8,1.8,0,0,1-.2.119,1.45,1.45,0,0,1-.2.1,2.418,2.418,0,0,1-.369.13,1.948,1.948,0,0,1-.3.065l-.266.032.269,0a2,2,0,0,0,.308-.033,2.514,2.514,0,0,0,.394-.092,1.555,1.555,0,0,0,.217-.081,1.973,1.973,0,0,0,.228-.1l.231-.128c.078-.045.15-.1.227-.155.038-.027.078-.053.115-.083l.108-.094a2.7,2.7,0,0,0,.216-.2l.2-.216c.055-.066.108-.135.161-.2a1.864,1.864,0,0,0,.281-.021l.223-.029.2-.046a2.458,2.458,0,0,0,.348-.1l.143-.048.116-.052.219-.1-.231.066-.121.034-.146.026a2.417,2.417,0,0,1-.35.048l-.2.016-.214,0a1.127,1.127,0,0,1-.118,0l.042-.064C121.19-287.821,121.252-287.9,121.3-287.989Zm-29.51-2.826.134-.112.138-.11c.046-.036.092-.073.139-.108l.14-.1c.092-.07.187-.133.277-.2s.181-.119.266-.172l.124-.078.119-.068c.076-.043.146-.084.208-.118l.165-.084.143-.073-.135.087-.154.1c-.059.04-.123.087-.194.137l-.11.079-.114.089c-.078.061-.162.124-.244.2s-.169.141-.252.219l-.126.115c-.042.039-.083.08-.124.119l-.123.12-.038.039-.327,0C91.725-290.763,91.754-290.789,91.785-290.814Zm24.181.464.034-.137c.011-.046.023-.091.033-.137l.029-.135c.021-.09.035-.177.05-.262s.027-.166.038-.244l.016-.113.01-.1c.006-.067.013-.128.017-.182s0-.1.006-.139c0-.077.006-.121.006-.121l.008.116c0,.037.006.082.009.134s0,.112,0,.177v.1q0,.053,0,.11c0,.076,0,.155-.012.24s-.012.17-.023.26l-.015.135c-.005.045-.013.091-.019.137l-.021.137-.012.066-.17.012Zm5.062,1.934-.1.25c-.03.086-.078.163-.117.247-.033.067-.068.134-.107.2a3.079,3.079,0,0,1-.417-.1,3.82,3.82,0,0,1-.461-.177,3.771,3.771,0,0,1-.421-.246,3.724,3.724,0,0,1-.368-.284,3.673,3.673,0,0,1-.3-.312l-.125-.152-.029-.044.987-.059.995-.068.673-.053c0,.026-.009.051-.015.077a4.394,4.394,0,0,1-.12.478C121.081-288.583,121.062-288.5,121.028-288.416Z" transform="translate(-85 293)" fill="none"/>
    </clipPath>
    <clipPath id="clip-path-29">
      <path id="Path_261-2" data-name="Path 261" d="M68.688-286.714a1.194,1.194,0,0,1-1.016-.485c-.266-.384-.364-.493.013-.846.133-.124.286-.227.429-.339l-.012-.03-.86.2L67-288.521A15.5,15.5,0,0,1,68.683-289c-.065.164-.1.275-.152.38a.809.809,0,0,0,.042.919,1.431,1.431,0,0,0,.375.336c.291.168.6.307.92.469-.06.031-.113.064-.169.087A2.451,2.451,0,0,1,68.688-286.714Z" transform="translate(-67 289)" fill="none"/>
    </clipPath>
    <clipPath id="clip-path-30">
      <path id="Path_260-2" data-name="Path 260" d="M57-293H175.124v114.684H57Z" transform="translate(-57 293)" fill="none"/>
    </clipPath>
    <clipPath id="clip-path-31">
      <path id="Path_255-2" data-name="Path 255" d="M73.127-286.28h0c-.172,0-.344-.028-.519-.03-.207,0-.413.011-.62,0a3.274,3.274,0,0,1-1.718-.562.653.653,0,0,1-.256-.358.553.553,0,0,1,.19-.516,1.527,1.527,0,0,1,1.218-.226.539.539,0,0,1,.329.138.278.278,0,0,1,0,.355.425.425,0,0,1-.37.138.666.666,0,0,1-.458-.337.25.25,0,0,0,.014.219.575.575,0,0,0,.154.175,1.411,1.411,0,0,0,.572.276.64.64,0,0,0,.439-.027.343.343,0,0,0,.179-.249.666.666,0,0,0-.13-.371v0c0-.06.047-.071.109-.061h0c.252.087.493.2.737.3.162.067.567.147.4.387a1.3,1.3,0,0,1-.114.124.577.577,0,0,0-.144.3.864.864,0,0,0,.015.165C73.165-286.37,73.166-286.3,73.127-286.28Z" transform="translate(-70 288)" fill="none"/>
    </clipPath>
    <clipPath id="clip-path-33">
      <path id="Path_249-2" data-name="Path 249" d="M65.522-285.091c-.027-.12-.043-.226.107-.319a7.825,7.825,0,0,0,.7-.506c.154-.121.183-.112.32.024a8.967,8.967,0,0,0,.683.612c.288.232.6.437.886.672.229.189.432.405.64.614a4.2,4.2,0,0,1,.822,1.132.876.876,0,0,1,.053.3c-.008-.082-.484-.264-.567-.3a4.887,4.887,0,0,0-.644-.232,5.272,5.272,0,0,0-1.367-.2,5.424,5.424,0,0,0-2.567.672.42.42,0,0,1-.524-.145.661.661,0,0,1-.03-.5c.08-.222.167-.442.249-.663.108-.288.214-.576.323-.864a.129.129,0,0,1,.049-.068c.2-.107.4-.21.617-.325a1.957,1.957,0,0,1-.5,1.666,5.123,5.123,0,0,0,.565-.374.737.737,0,0,0,.308-.717C65.619-284.767,65.559-284.927,65.522-285.091Zm-.907,2.1a1.838,1.838,0,0,0,.3-.113,5.622,5.622,0,0,1,1.533-.639,4.492,4.492,0,0,1,1.5-.082c.21.02.417.074.654.118a.866.866,0,0,0-.547-.45,2.616,2.616,0,0,0-.916-.185,2.173,2.173,0,0,0-1.414.489C65.38-283.546,64.989-283.285,64.615-282.986Z" transform="translate(-64 286)" fill="none"/>
    </clipPath>
    <clipPath id="clip-path-35">
      <path id="Path_252-2" data-name="Path 252" d="M77.448-282.991a5.575,5.575,0,0,1,1.454,1.034c.244.2.491.4.749.59a5.863,5.863,0,0,0,1.722.822c.221.067.271.194.15.391-.094.153-.209.294-.312.442a3.855,3.855,0,0,1-.831.791c-.286.224-.907.675-1.277.447a1.243,1.243,0,0,1-.39-.481A20.578,20.578,0,0,0,77-281.837c.5-.246.538-.673.382-1.163A.381.381,0,0,1,77.448-282.991Z" transform="translate(-77 283)" fill="none"/>
    </clipPath>
    <clipPath id="clip-path-37">
      <path id="Path_258-2" data-name="Path 258" d="M58.15-275.876a.691.691,0,0,1,.093-.056c.184-.092.369-.183.554-.271h0l.042-.016c.329-.126.657-.258.974-.412l.011,0a2.939,2.939,0,0,0,.985-.6l.081-.086h0c.424-.372.778-.812,1.171-1.222a1.463,1.463,0,0,1,1.454-.406c.462.1.907.279,1.361.423l0,.043c-.334.134-.676.251-1,.408a8.981,8.981,0,0,0-2.271,1.549,8.46,8.46,0,0,0-.836.918c-.258.33-.469.685-.7,1.029-.064.094-.132.208-.281.159a4.684,4.684,0,0,1-1.235-.546,1.454,1.454,0,0,1-.533-.515v0a.339.339,0,0,1,.006-.229.423.423,0,0,1,.126-.159Z" transform="translate(-58 279)" fill="none"/>
    </clipPath>
    <clipPath id="clip-path-39">
      <path id="Path_264-2" data-name="Path 264" d="M61.554-290.7a.209.209,0,0,1,.071-.023c.212-.021.425-.034.636-.063.191-.026.381-.065.569-.105.132-.029.261-.069.409-.109a.622.622,0,0,1-.011.1,15.911,15.911,0,0,0-.564,1.732.761.761,0,0,0,.007.475.547.547,0,0,0,.505.281c.2,0,.368-.137.56-.132a.62.62,0,0,1,.466.321c.128.214.174.466.28.692a1.4,1.4,0,0,0,.671.657,1.605,1.605,0,0,0,.972.062.633.633,0,0,1,.42.1c.51.366-.145.631-.434.741a2.287,2.287,0,0,1-1.525,0,4.181,4.181,0,0,1-1.675-1.183c-.47-.507-.874-1.074-1.335-1.59a3.037,3.037,0,0,1-.473-.613A1.016,1.016,0,0,1,61.554-290.7Z" transform="translate(-61 291)" fill="none"/>
    </clipPath>
    <clipPath id="clip-path-41">
      <path id="Path_267-2" data-name="Path 267" d="M61.987-277.029a7.327,7.327,0,0,0,1.2-.361,4.525,4.525,0,0,0,.567-.277,3.186,3.186,0,0,0,.465-.371c.029-.025.089-.051.044-.083a1.927,1.927,0,0,0-.346.147q-.182.073-.366.14-.369.133-.747.239a12.067,12.067,0,0,1-1.474.294.912.912,0,0,0-.351.067.284.284,0,0,1,.009-.048l0,0a7.258,7.258,0,0,1,.857-1.216,13.16,13.16,0,0,1,.97-1.071,13.428,13.428,0,0,1,1.106-.98q.293-.232.6-.448c.195-.137.394-.244.6-.366a5.128,5.128,0,0,1,1.355-.552,2.985,2.985,0,0,1,3.14,1.127c.12.219.242.858-.035,1.045a.3.3,0,0,1-.118.046,14.517,14.517,0,0,0-5.522,2.614c-.209.119-.422.23-.641.331a5.19,5.19,0,0,1-1.467.445,3.156,3.156,0,0,1-1.445-.09.769.769,0,0,1-.388-.243,6.748,6.748,0,0,1,.983-.194C61.318-276.9,61.655-276.955,61.987-277.029Z" transform="translate(-60 282)" fill="none"/>
    </clipPath>
    <clipPath id="clip-path-43">
      <path id="Path_270-2" data-name="Path 270" d="M72.311-284.637a5.418,5.418,0,0,1,.748.031c.366.087.671.3,1.048.357a1.921,1.921,0,0,0,1.28-.2c.344-.2.682-.414,1.021-.624a.874.874,0,0,0,.116-.12,2.679,2.679,0,0,0-.369.069c-.311.109-.612.252-.93.335a2.268,2.268,0,0,1-.606.009c.02-.1.08-.138.151-.211a1.719,1.719,0,0,0,.22-.277,1.693,1.693,0,0,0,.249-.654,1.689,1.689,0,0,0-.053-.741,7.6,7.6,0,0,0-.323-.714c-.077-.185-.156-.369-.216-.558a1.271,1.271,0,0,1,.156-.955c.026-.055.06-.108.092-.165a4.558,4.558,0,0,0,.294.747c.136.242.3.469.45.7a2.861,2.861,0,0,1,.537,1.245c.018.178.054.382.279.394a1.955,1.955,0,0,0,.118-.592c0-.008,0-.016,0-.023.051-.48-.379-.86-.629-1.222a5.9,5.9,0,0,1-.691-1.306q-.036-.1-.067-.2a6.321,6.321,0,0,1-.2-.834c-.025-.144-.047-.288-.067-.433a1.414,1.414,0,0,1-.049-.422c.04.008.072.086.088.123.108.241.2.49.323.722.28.525.564,1.048.848,1.57s.645.968.97,1.453a3.142,3.142,0,0,1,.63,1.656,1.454,1.454,0,0,1-.9,1.419,10.665,10.665,0,0,1-2.49.492c-.855.059-2.118.043-2.34-1C71.991-284.611,72.13-284.631,72.311-284.637Z" transform="translate(-72 291)" fill="none"/>
    </clipPath>
    <clipPath id="clip-path-45">
      <path id="Path_273-2" data-name="Path 273" d="M70.084-280.984c.518-.3,1.051-.572,1.585-.839a1.623,1.623,0,0,1,.565-.173.817.817,0,0,1,.528.118,1.324,1.324,0,0,1,.462.673,3.566,3.566,0,0,1,.214,1.341c-.01.326-.044,1.038-.3,1.263-.113.1-.148,0-.265-.1a7.723,7.723,0,0,0-1.451-.826C71.219-279.628,69.621-280.714,70.084-280.984Z" transform="translate(-70 282)" fill="none"/>
    </clipPath>
    <clipPath id="clip-path-47">
      <path id="Path_279-2" data-name="Path 279" d="M70.15-287.917a1.555,1.555,0,0,1,.181.214,3.984,3.984,0,0,0,.756.71,6.777,6.777,0,0,0,.842.4,3.785,3.785,0,0,1,1.542,1.216,3.628,3.628,0,0,1,.493,1.324,1.416,1.416,0,0,1,0,.725c-.073.219-.595.677-.825.4-.148-.179.1-.54.116-.733a2.086,2.086,0,0,0-.243-1.111,4.529,4.529,0,0,0-1.215-1.356c-.358-.293-.732-.568-1.071-.882-.293-.272-.677-.574-.73-.991,0,.022.119.06.14.076Z" transform="translate(-70 288)" fill="none"/>
    </clipPath>
    <clipPath id="clip-path-49">
      <path id="Path_261-3" data-name="Path 261" d="M68.179-288.992a1.194,1.194,0,0,1,1.016.485c.267.384.364.493-.013.846-.133.124-.286.227-.429.339l.012.03.86-.2.243.305a15.49,15.49,0,0,1-1.683.478c.065-.164.1-.275.152-.38a.809.809,0,0,0-.042-.919,1.43,1.43,0,0,0-.375-.336c-.291-.168-.6-.308-.92-.469.06-.031.113-.064.169-.087A2.451,2.451,0,0,1,68.179-288.992Z" transform="translate(-67 289)" fill="none"/>
    </clipPath>
    <clipPath id="clip-path-50">
      <path id="Path_260-3" data-name="Path 260" d="M175.124-178.316H57V-293H175.124Z" transform="translate(-57 293)" fill="none"/>
    </clipPath>
    <clipPath id="clip-path-51">
      <path id="Path_255-3" data-name="Path 255" d="M70.313-288h0c.172,0,.344.028.519.03.207,0,.413-.011.62,0a3.274,3.274,0,0,1,1.718.562.653.653,0,0,1,.256.358.553.553,0,0,1-.19.516,1.527,1.527,0,0,1-1.218.226.539.539,0,0,1-.329-.138.278.278,0,0,1,0-.355.425.425,0,0,1,.37-.138.666.666,0,0,1,.458.337.25.25,0,0,0-.014-.219.576.576,0,0,0-.154-.175,1.411,1.411,0,0,0-.572-.276.641.641,0,0,0-.439.027.343.343,0,0,0-.179.249.666.666,0,0,0,.13.371v0c0,.06-.047.071-.109.061h0c-.252-.087-.493-.2-.737-.3-.162-.067-.567-.147-.4-.387a1.3,1.3,0,0,1,.114-.124.577.577,0,0,0,.144-.3.863.863,0,0,0-.015-.165C70.276-287.91,70.275-287.976,70.313-288Z" transform="translate(-70 288)" fill="none"/>
    </clipPath>
    <clipPath id="clip-path-53">
      <path id="Path_249-3" data-name="Path 249" d="M68.212-283.469c.027.12.043.226-.107.318a7.837,7.837,0,0,0-.7.506c-.154.121-.183.112-.32-.024a8.962,8.962,0,0,0-.683-.612c-.288-.232-.6-.436-.886-.672-.229-.189-.432-.405-.64-.614a4.2,4.2,0,0,1-.822-1.132A.876.876,0,0,1,64-286c.008.082.484.264.567.3a4.888,4.888,0,0,0,.644.232,5.273,5.273,0,0,0,1.367.2,5.423,5.423,0,0,0,2.567-.672.42.42,0,0,1,.524.145.661.661,0,0,1,.03.5c-.08.222-.167.442-.249.663-.108.288-.214.576-.323.864a.129.129,0,0,1-.049.068c-.2.107-.4.21-.617.325a1.957,1.957,0,0,1,.5-1.666,5.131,5.131,0,0,0-.565.374.737.737,0,0,0-.308.717C68.115-283.792,68.175-283.632,68.212-283.469Zm.907-2.1a1.837,1.837,0,0,0-.3.113,5.623,5.623,0,0,1-1.533.639,4.493,4.493,0,0,1-1.5.082c-.21-.02-.417-.074-.654-.118a.866.866,0,0,0,.547.45,2.619,2.619,0,0,0,.916.185,2.173,2.173,0,0,0,1.414-.489C68.355-285.014,68.746-285.275,69.119-285.574Z" transform="translate(-64 286)" fill="none"/>
    </clipPath>
    <clipPath id="clip-path-55">
      <path id="Path_252-3" data-name="Path 252" d="M81.139-278.422a5.577,5.577,0,0,1-1.454-1.034c-.244-.2-.491-.4-.749-.59a5.86,5.86,0,0,0-1.722-.822c-.221-.067-.271-.195-.15-.391.094-.153.209-.294.312-.442a3.857,3.857,0,0,1,.831-.791c.286-.224.907-.675,1.277-.447a1.243,1.243,0,0,1,.39.481,20.584,20.584,0,0,0,1.713,2.88c-.5.246-.538.673-.382,1.163A.381.381,0,0,1,81.139-278.422Z" transform="translate(-77 283)" fill="none"/>
    </clipPath>
    <clipPath id="clip-path-57">
      <path id="Path_258-3" data-name="Path 258" d="M64.731-277.536a.7.7,0,0,1-.093.056c-.184.092-.369.183-.554.271h0l-.042.016c-.329.126-.657.258-.974.412l-.011,0a2.939,2.939,0,0,0-.985.6l-.081.086v0c-.424.372-.778.812-1.171,1.222a1.464,1.464,0,0,1-1.454.406c-.462-.1-.907-.279-1.361-.423l0-.043c.334-.134.676-.251,1-.408a8.98,8.98,0,0,0,2.271-1.549,8.454,8.454,0,0,0,.836-.918c.258-.33.469-.685.7-1.029.064-.094.132-.208.281-.159a4.688,4.688,0,0,1,1.235.546,1.453,1.453,0,0,1,.533.515v0a.339.339,0,0,1-.006.229.423.423,0,0,1-.126.159Z" transform="translate(-58 279)" fill="none"/>
    </clipPath>
    <clipPath id="clip-path-59">
      <path id="Path_264-3" data-name="Path 264" d="M66.18-286.139a.209.209,0,0,1-.071.023c-.212.021-.425.034-.636.063-.191.026-.381.065-.569.105-.132.029-.261.069-.409.109a.625.625,0,0,1,.011-.1,15.9,15.9,0,0,0,.564-1.732.761.761,0,0,0-.007-.475.547.547,0,0,0-.505-.282c-.2,0-.368.137-.56.132a.62.62,0,0,1-.466-.321c-.128-.214-.174-.467-.28-.692a1.4,1.4,0,0,0-.671-.657,1.606,1.606,0,0,0-.972-.062.633.633,0,0,1-.42-.1c-.51-.366.145-.631.434-.741a2.287,2.287,0,0,1,1.525,0,4.181,4.181,0,0,1,1.675,1.183c.47.507.874,1.074,1.335,1.59a3.038,3.038,0,0,1,.473.613A1.016,1.016,0,0,1,66.18-286.139Z" transform="translate(-61 291)" fill="none"/>
    </clipPath>
    <clipPath id="clip-path-61">
      <path id="Path_267-3" data-name="Path 267" d="M67.761-281.237a7.333,7.333,0,0,0-1.2.361,4.539,4.539,0,0,0-.567.277,3.181,3.181,0,0,0-.465.371c-.029.025-.089.051-.044.083a1.925,1.925,0,0,0,.346-.147q.182-.073.366-.14.369-.133.747-.239a12.044,12.044,0,0,1,1.474-.294.915.915,0,0,0,.351-.067.283.283,0,0,1-.009.048l0,0a7.259,7.259,0,0,1-.857,1.216,13.166,13.166,0,0,1-.97,1.071,13.408,13.408,0,0,1-1.106.98q-.293.232-.6.448c-.195.137-.394.244-.6.366a5.124,5.124,0,0,1-1.355.552,2.985,2.985,0,0,1-3.14-1.127c-.12-.219-.242-.858.035-1.045a.3.3,0,0,1,.118-.046,14.517,14.517,0,0,0,5.522-2.614c.209-.119.422-.23.641-.331a5.191,5.191,0,0,1,1.466-.445,3.156,3.156,0,0,1,1.445.09.769.769,0,0,1,.388.243,6.735,6.735,0,0,1-.983.194C68.43-281.37,68.094-281.311,67.761-281.237Z" transform="translate(-60 282)" fill="none"/>
    </clipPath>
    <clipPath id="clip-path-63">
      <path id="Path_270-3" data-name="Path 270" d="M77.423-289.908a5.42,5.42,0,0,1-.748-.031c-.366-.087-.671-.3-1.048-.357a1.921,1.921,0,0,0-1.28.2c-.344.2-.682.414-1.021.624a.874.874,0,0,0-.116.12,2.67,2.67,0,0,0,.369-.069c.311-.109.612-.252.93-.335a2.268,2.268,0,0,1,.606-.009c-.02.1-.08.138-.151.211a1.721,1.721,0,0,0-.22.277,1.693,1.693,0,0,0-.249.654,1.689,1.689,0,0,0,.053.741,7.61,7.61,0,0,0,.323.714c.077.185.156.369.216.558a1.27,1.27,0,0,1-.156.955c-.026.055-.06.108-.092.165a4.558,4.558,0,0,0-.294-.747c-.136-.242-.3-.47-.45-.7a2.861,2.861,0,0,1-.537-1.245c-.018-.178-.054-.382-.279-.394a1.955,1.955,0,0,0-.118.592c0,.008,0,.016,0,.023-.051.48.38.86.629,1.222a5.9,5.9,0,0,1,.691,1.306q.036.1.067.2a6.323,6.323,0,0,1,.2.834c.025.144.047.288.067.433a1.413,1.413,0,0,1,.049.422c-.04-.008-.072-.086-.088-.123-.108-.241-.2-.49-.323-.722-.28-.525-.564-1.048-.848-1.57s-.645-.968-.97-1.453A3.141,3.141,0,0,1,72-289.07a1.454,1.454,0,0,1,.9-1.419,10.665,10.665,0,0,1,2.49-.492c.855-.059,2.118-.043,2.34,1C77.743-289.935,77.6-289.914,77.423-289.908Z" transform="translate(-72 291)" fill="none"/>
    </clipPath>
    <clipPath id="clip-path-65">
      <path id="Path_273-3" data-name="Path 273" d="M73.357-279.576c-.518.3-1.051.572-1.585.839a1.625,1.625,0,0,1-.565.173.817.817,0,0,1-.528-.118,1.324,1.324,0,0,1-.462-.673A3.566,3.566,0,0,1,70-280.7c.01-.326.044-1.038.3-1.263.113-.1.148,0,.265.1a7.723,7.723,0,0,0,1.451.826C72.222-280.932,73.82-279.845,73.357-279.576Z" transform="translate(-70 282)" fill="none"/>
    </clipPath>
    <clipPath id="clip-path-67">
      <path id="Path_279-3" data-name="Path 279" d="M73.864-282.922a1.554,1.554,0,0,1-.181-.214,3.981,3.981,0,0,0-.756-.71,6.773,6.773,0,0,0-.842-.4,3.785,3.785,0,0,1-1.542-1.216,3.629,3.629,0,0,1-.493-1.324,1.416,1.416,0,0,1,0-.725c.073-.219.595-.677.825-.4.148.179-.1.54-.116.733A2.086,2.086,0,0,0,71-286.069a4.53,4.53,0,0,0,1.215,1.356c.358.293.732.568,1.071.882.293.271.677.574.73.991,0-.022-.119-.06-.14-.076Z" transform="translate(-70 288)" fill="none"/>
    </clipPath>
    <clipPath id="clip-path-69">
      <path id="Path_261-4" data-name="Path 261" d="M68.179-286.714a1.194,1.194,0,0,0,1.016-.485c.267-.384.364-.493-.013-.846-.133-.124-.286-.227-.429-.339l.012-.03.86.2.243-.305A15.5,15.5,0,0,0,68.184-289c.065.164.1.275.152.38a.809.809,0,0,1-.042.919,1.432,1.432,0,0,1-.375.336c-.291.168-.6.307-.92.469.06.031.113.064.169.087A2.451,2.451,0,0,0,68.179-286.714Z" transform="translate(-67 289)" fill="none"/>
    </clipPath>
    <clipPath id="clip-path-70">
      <path id="Path_260-4" data-name="Path 260" d="M175.124-293H57v114.684H175.124Z" transform="translate(-57 293)" fill="none"/>
    </clipPath>
    <clipPath id="clip-path-71">
      <path id="Path_255-4" data-name="Path 255" d="M70.313-286.28h0c.172,0,.344-.028.519-.03.207,0,.413.011.62,0a3.274,3.274,0,0,0,1.718-.562.653.653,0,0,0,.256-.358.553.553,0,0,0-.19-.516,1.527,1.527,0,0,0-1.218-.226.539.539,0,0,0-.329.138.278.278,0,0,0,0,.355.425.425,0,0,0,.37.138.666.666,0,0,0,.458-.337.25.25,0,0,1-.014.219.576.576,0,0,1-.154.175,1.411,1.411,0,0,1-.572.276.64.64,0,0,1-.439-.027.343.343,0,0,1-.179-.249.666.666,0,0,1,.13-.371v0c0-.06-.047-.071-.109-.061h0c-.252.087-.493.2-.737.3-.162.067-.567.147-.4.387a1.3,1.3,0,0,0,.114.124.577.577,0,0,1,.144.3.863.863,0,0,1-.015.165C70.276-286.37,70.275-286.3,70.313-286.28Z" transform="translate(-70 288)" fill="none"/>
    </clipPath>
    <clipPath id="clip-path-73">
      <path id="Path_249-4" data-name="Path 249" d="M68.212-285.091c.027-.12.043-.226-.107-.319a7.825,7.825,0,0,1-.7-.506c-.154-.121-.183-.112-.32.024a8.968,8.968,0,0,1-.683.612c-.288.232-.6.437-.886.672-.229.189-.432.405-.64.614a4.2,4.2,0,0,0-.822,1.132.876.876,0,0,0-.053.3c.008-.082.484-.264.567-.3a4.888,4.888,0,0,1,.644-.232,5.272,5.272,0,0,1,1.367-.2,5.424,5.424,0,0,1,2.567.672.42.42,0,0,0,.524-.145.661.661,0,0,0,.03-.5c-.08-.222-.167-.442-.249-.663-.108-.288-.214-.576-.323-.864a.129.129,0,0,0-.049-.068c-.2-.107-.4-.21-.617-.325a1.957,1.957,0,0,0,.5,1.666,5.122,5.122,0,0,1-.565-.374.737.737,0,0,1-.308-.717C68.115-284.767,68.175-284.927,68.212-285.091Zm.907,2.1a1.838,1.838,0,0,1-.3-.113,5.622,5.622,0,0,0-1.533-.639,4.492,4.492,0,0,0-1.5-.082c-.21.02-.417.074-.654.118a.867.867,0,0,1,.547-.45,2.616,2.616,0,0,1,.916-.185,2.173,2.173,0,0,1,1.414.489C68.355-283.546,68.746-283.285,69.119-282.986Z" transform="translate(-64 286)" fill="none"/>
    </clipPath>
    <clipPath id="clip-path-75">
      <path id="Path_252-4" data-name="Path 252" d="M81.139-282.991a5.575,5.575,0,0,0-1.454,1.034c-.244.2-.491.4-.749.59a5.862,5.862,0,0,1-1.722.822c-.221.067-.271.194-.15.391.094.153.209.294.312.442a3.855,3.855,0,0,0,.831.791c.286.224.907.675,1.277.447a1.243,1.243,0,0,0,.39-.481,20.579,20.579,0,0,1,1.713-2.88c-.5-.246-.538-.673-.382-1.163A.381.381,0,0,0,81.139-282.991Z" transform="translate(-77 283)" fill="none"/>
    </clipPath>
    <clipPath id="clip-path-77">
      <path id="Path_258-4" data-name="Path 258" d="M64.731-275.876a.691.691,0,0,0-.093-.056c-.184-.092-.369-.183-.554-.271h0l-.042-.016c-.329-.126-.657-.258-.974-.412l-.011,0a2.939,2.939,0,0,1-.985-.6l-.081-.086h0c-.424-.372-.778-.812-1.171-1.222a1.463,1.463,0,0,0-1.454-.406c-.462.1-.907.279-1.361.423l0,.043c.334.134.676.251,1,.408a8.98,8.98,0,0,1,2.271,1.549,8.459,8.459,0,0,1,.836.918c.258.33.469.685.7,1.029.064.094.132.208.281.159a4.684,4.684,0,0,0,1.235-.546,1.454,1.454,0,0,0,.533-.515v0a.339.339,0,0,0-.006-.229.423.423,0,0,0-.126-.159Z" transform="translate(-58 279)" fill="none"/>
    </clipPath>
    <clipPath id="clip-path-79">
      <path id="Path_264-4" data-name="Path 264" d="M66.18-290.7a.209.209,0,0,0-.071-.023c-.212-.021-.425-.034-.636-.063-.191-.026-.381-.065-.569-.105-.132-.029-.261-.069-.409-.109a.62.62,0,0,0,.011.1,15.913,15.913,0,0,1,.564,1.732.761.761,0,0,1-.007.475.547.547,0,0,1-.505.281c-.2,0-.368-.137-.56-.132a.62.62,0,0,0-.466.321c-.128.214-.174.466-.28.692a1.4,1.4,0,0,1-.671.657,1.605,1.605,0,0,1-.972.062.633.633,0,0,0-.42.1c-.51.366.145.631.434.741a2.287,2.287,0,0,0,1.525,0,4.181,4.181,0,0,0,1.675-1.183c.47-.507.874-1.074,1.335-1.59a3.036,3.036,0,0,0,.473-.613A1.016,1.016,0,0,0,66.18-290.7Z" transform="translate(-61 291)" fill="none"/>
    </clipPath>
    <clipPath id="clip-path-81">
      <path id="Path_267-4" data-name="Path 267" d="M67.761-277.029a7.328,7.328,0,0,1-1.2-.361,4.525,4.525,0,0,1-.567-.277,3.187,3.187,0,0,1-.465-.371c-.029-.025-.089-.051-.044-.083a1.927,1.927,0,0,1,.346.147q.182.073.366.14.369.133.747.239a12.068,12.068,0,0,0,1.474.294.912.912,0,0,1,.351.067.286.286,0,0,0-.009-.048l0,0A7.258,7.258,0,0,0,67.9-278.5a13.163,13.163,0,0,0-.97-1.071,13.425,13.425,0,0,0-1.106-.98q-.293-.232-.6-.448c-.195-.137-.394-.244-.6-.366a5.128,5.128,0,0,0-1.355-.552,2.985,2.985,0,0,0-3.14,1.127c-.12.219-.242.858.035,1.045a.3.3,0,0,0,.118.046,14.517,14.517,0,0,1,5.522,2.614c.209.119.422.23.641.331a5.19,5.19,0,0,0,1.466.445,3.156,3.156,0,0,0,1.445-.09.769.769,0,0,0,.388-.243,6.748,6.748,0,0,0-.983-.194C68.43-276.9,68.094-276.955,67.761-277.029Z" transform="translate(-60 282)" fill="none"/>
    </clipPath>
    <clipPath id="clip-path-83">
      <path id="Path_270-4" data-name="Path 270" d="M77.423-284.637a5.418,5.418,0,0,0-.748.031c-.366.087-.671.3-1.048.357a1.921,1.921,0,0,1-1.28-.2c-.344-.2-.682-.414-1.021-.624a.874.874,0,0,1-.116-.12,2.679,2.679,0,0,1,.369.069c.311.109.612.252.93.335a2.268,2.268,0,0,0,.606.009c-.02-.1-.08-.138-.151-.211a1.719,1.719,0,0,1-.22-.277,1.693,1.693,0,0,1-.249-.654,1.689,1.689,0,0,1,.053-.741,7.6,7.6,0,0,1,.323-.714c.077-.185.156-.369.216-.558a1.271,1.271,0,0,0-.156-.955c-.026-.055-.06-.108-.092-.165a4.558,4.558,0,0,1-.294.747c-.136.242-.3.469-.45.7a2.861,2.861,0,0,0-.537,1.245c-.018.178-.054.382-.279.394a1.955,1.955,0,0,1-.118-.592c0-.008,0-.016,0-.023-.051-.48.38-.86.629-1.222a5.9,5.9,0,0,0,.691-1.306q.036-.1.067-.2a6.322,6.322,0,0,0,.2-.834c.025-.144.047-.288.067-.433a1.414,1.414,0,0,0,.049-.422c-.04.008-.072.086-.088.123-.108.241-.2.49-.323.722-.28.525-.564,1.048-.848,1.57s-.645.968-.97,1.453a3.142,3.142,0,0,0-.63,1.656,1.454,1.454,0,0,0,.9,1.419,10.665,10.665,0,0,0,2.49.492c.855.059,2.118.043,2.34-1C77.743-284.611,77.6-284.631,77.423-284.637Z" transform="translate(-72 291)" fill="none"/>
    </clipPath>
    <clipPath id="clip-path-85">
      <path id="Path_273-4" data-name="Path 273" d="M73.357-280.984c-.518-.3-1.051-.572-1.585-.839a1.623,1.623,0,0,0-.565-.173.817.817,0,0,0-.528.118,1.324,1.324,0,0,0-.462.673A3.566,3.566,0,0,0,70-279.864c.01.326.044,1.038.3,1.263.113.1.148,0,.265-.1a7.723,7.723,0,0,1,1.451-.826C72.222-279.628,73.82-280.714,73.357-280.984Z" transform="translate(-70 282)" fill="none"/>
    </clipPath>
    <clipPath id="clip-path-87">
      <path id="Path_279-4" data-name="Path 279" d="M73.864-287.917a1.554,1.554,0,0,0-.181.214,3.984,3.984,0,0,1-.756.71,6.777,6.777,0,0,1-.842.4,3.785,3.785,0,0,0-1.542,1.216,3.629,3.629,0,0,0-.493,1.324,1.416,1.416,0,0,0,0,.725c.073.219.595.677.825.4.148-.179-.1-.54-.116-.733A2.086,2.086,0,0,1,71-284.771a4.529,4.529,0,0,1,1.215-1.356c.358-.293.732-.568,1.071-.882.293-.272.677-.574.73-.991,0,.022-.119.06-.14.076Z" transform="translate(-70 288)" fill="none"/>
    </clipPath>
    <filter id="Path_1" x="7.5" y="45.336" width="138.916" height="70.958" filterUnits="userSpaceOnUse">
      <feOffset input="SourceAlpha"/>
      <feGaussianBlur stdDeviation="0.5" result="blur"/>
      <feFlood flood-opacity="0.161"/>
      <feComposite operator="in" in2="blur"/>
      <feComposite in="SourceGraphic"/>
    </filter>
    <filter id="Path_241" x="0" y="66.158" width="153.916" height="60.497" filterUnits="userSpaceOnUse">
      <feOffset dy="3" input="SourceAlpha"/>
      <feGaussianBlur stdDeviation="3" result="blur-2"/>
      <feFlood flood-opacity="0.161"/>
      <feComposite operator="in" in2="blur-2"/>
      <feComposite in="SourceGraphic"/>
    </filter>
  </defs>
  <g id="Mail" transform="translate(-43 -182.013)">
    <path id="Path_391" data-name="Path 391" d="M135.912,49.781V47.267a6.536,6.536,0,0,0-3.55-5.82l-59-39.6a9.738,9.738,0,0,0-10.833,0L3.413,41.416A6.543,6.543,0,0,0,0,47.16v2.621Z" transform="translate(52.003 181.813)" fill="#bbddde"/>
    <rect id="Rectangle_2" data-name="Rectangle 2" width="67.537" height="135.706" transform="translate(187.706 229.062) rotate(90)" fill="#add5d6"/>
    <g id="Note" transform="translate(71.642 234.006)">
      <rect id="Rectangle_3" data-name="Rectangle 3" width="96" height="55" rx="7" transform="translate(0.358 0.447)" fill="#48a9c6"/>
      <g id="Group_27" data-name="Group 27" transform="translate(4.843 5.229)" opacity="0.152">
        <g id="Group_104" data-name="Group 104" transform="translate(0 7.828)">
          <g id="Group_16" data-name="Group 16" transform="translate(5.161 1.147)" clip-path="url(#clip-path)">
            <g id="Group_15" data-name="Group 15" transform="translate(-5.734 -2.294)" clip-path="url(#clip-path-2)">
              <path id="Path_259" data-name="Path 259" d="M62-294h8.6v8.028H62Z" transform="translate(-59.133 293.427)"/>
            </g>
          </g>
          <g id="Group_12" data-name="Group 12" transform="translate(6.881 1.72)" clip-path="url(#clip-path-3)">
            <g id="Group_11" data-name="Group 11" transform="translate(-7.454 -2.867)" clip-path="url(#clip-path-2)">
              <path id="Path_253" data-name="Path 253" d="M65-293h9.175v7.454H65Z" transform="translate(-60.413 293)"/>
            </g>
          </g>
          <g id="Group_8" data-name="Group 8" transform="translate(3.441 2.867)" clip-path="url(#clip-path-5)">
            <g id="Group_7" data-name="Group 7" transform="translate(-4.014 -4.014)" clip-path="url(#clip-path-2)">
              <path id="Path_247" data-name="Path 247" d="M59-291H70.468v9.175H59Z" transform="translate(-57.853 292.147)"/>
            </g>
          </g>
          <g id="Group_10" data-name="Group 10" transform="translate(10.895 4.587)" clip-path="url(#clip-path-7)">
            <g id="Group_9" data-name="Group 9" transform="translate(-11.468 -5.734)" clip-path="url(#clip-path-2)">
              <path id="Path_250" data-name="Path 250" d="M72-288H82.322v10.322H72Z" transform="translate(-63.399 290.867)"/>
            </g>
          </g>
          <g id="Group_14" data-name="Group 14" transform="translate(0 6.881)" clip-path="url(#clip-path-9)">
            <g id="Group_13" data-name="Group 13" transform="translate(-0.573 -8.028)" clip-path="url(#clip-path-2)">
              <path id="Path_256" data-name="Path 256" d="M53-284H65.615v10.322H53Z" transform="translate(-55.294 289.161)"/>
            </g>
          </g>
          <g id="Group_18" data-name="Group 18" transform="translate(1.72)" clip-path="url(#clip-path-11)">
            <g id="Group_17" data-name="Group 17" transform="translate(-2.294 -1.147)" clip-path="url(#clip-path-2)">
              <path id="Path_262" data-name="Path 262" d="M56-296H67.468v10.895H56Z" transform="translate(-56.573 294.28)"/>
            </g>
          </g>
          <g id="Group_20" data-name="Group 20" transform="translate(1.147 5.161)" clip-path="url(#clip-path-13)">
            <g id="Group_19" data-name="Group 19" transform="translate(-1.72 -6.308)" clip-path="url(#clip-path-2)">
              <path id="Path_265" data-name="Path 265" d="M55-287H70.482v11.468H55Z" transform="translate(-56.147 290.441)"/>
            </g>
          </g>
          <g id="Group_22" data-name="Group 22" transform="translate(8.028 0)" clip-path="url(#clip-path-15)">
            <g id="Group_21" data-name="Group 21" transform="translate(-8.601 -1.147)" clip-path="url(#clip-path-2)">
              <path id="Path_268" data-name="Path 268" d="M67-296H78.468v13.189H67Z" transform="translate(-61.266 294.28)"/>
            </g>
          </g>
          <g id="Group_24" data-name="Group 24" transform="translate(6.881 5.161)" clip-path="url(#clip-path-17)">
            <g id="Group_23" data-name="Group 23" transform="translate(-7.454 -6.308)" clip-path="url(#clip-path-2)">
              <path id="Path_271" data-name="Path 271" d="M65-287h9.175v9.175H65Z" transform="translate(-60.413 290.441)"/>
            </g>
          </g>
          <g id="Group_28" data-name="Group 28" transform="translate(6.881 1.72)" clip-path="url(#clip-path-19)">
            <g id="Group_27-2" data-name="Group 27" transform="translate(-7.454 -2.867)" clip-path="url(#clip-path-2)">
              <path id="Path_277" data-name="Path 277" d="M65-293h9.748V-282.1H65Z" transform="translate(-60.413 293)"/>
            </g>
          </g>
        </g>
        <g id="Group_96" data-name="Group 96" transform="translate(20.154 36.442)" clip-path="url(#clip-path-21)">
          <g id="Group_95" data-name="Group 95" transform="translate(-8.817 -54.794)" clip-path="url(#clip-path-22)">
            <path id="Path_379" data-name="Path 379" d="M80-124h50.7v11.337H80Z" transform="translate(-72.757 177.219)"/>
          </g>
        </g>
        <g id="Group_98" data-name="Group 98" clip-path="url(#clip-path-23)">
          <g id="Group_97" data-name="Group 97" transform="translate(-1.26 -7.558)" clip-path="url(#clip-path-22)">
            <path id="Path_382" data-name="Path 382" d="M56-274H67.337v50.385H56Z" transform="translate(-56.315 279.983)"/>
          </g>
        </g>
        <g id="Group_100" data-name="Group 100" transform="translate(79.357 0.157)" clip-path="url(#clip-path-25)">
          <g id="Group_99" data-name="Group 99" transform="translate(-55.424 -7.873)" clip-path="url(#clip-path-22)">
            <path id="Path_385" data-name="Path 385" d="M228-273h11.022v50.07H228Z" transform="translate(-174.151 279.298)"/>
          </g>
        </g>
        <g id="Group_102" data-name="Group 102" transform="translate(20.154 2.606)" clip-path="url(#clip-path-27)">
          <g id="Group_101" data-name="Group 101" transform="translate(-8.817)" clip-path="url(#clip-path-22)">
            <path id="Path_388" data-name="Path 388" d="M80-298h50.7v10.077H80Z" transform="translate(-72.757 296.425)"/>
          </g>
        </g>
        <g id="Group_105" data-name="Group 105" transform="translate(0 25.106)">
          <g id="Group_16-2" data-name="Group 16" transform="translate(5.161 8.028)" clip-path="url(#clip-path-29)">
            <g id="Group_15-2" data-name="Group 15" transform="translate(-5.734 -110.097)" clip-path="url(#clip-path-30)">
              <path id="Path_259-2" data-name="Path 259" d="M62-285.972h8.6V-294H62Z" transform="translate(-59.133 401.229)"/>
            </g>
          </g>
          <g id="Group_12-2" data-name="Group 12" transform="translate(6.881 8.028)" clip-path="url(#clip-path-31)">
            <g id="Group_11-2" data-name="Group 11" transform="translate(-7.454 -110.097)" clip-path="url(#clip-path-30)">
              <path id="Path_253-2" data-name="Path 253" d="M65-285.545h9.175V-293H65Z" transform="translate(-60.413 400.229)"/>
            </g>
          </g>
          <g id="Group_8-2" data-name="Group 8" transform="translate(3.441 5.161)" clip-path="url(#clip-path-33)">
            <g id="Group_7-2" data-name="Group 7" transform="translate(-4.014 -107.229)" clip-path="url(#clip-path-30)">
              <path id="Path_247-2" data-name="Path 247" d="M59-281.825H70.468V-291H59Z" transform="translate(-57.853 395.362)"/>
            </g>
          </g>
          <g id="Group_10-2" data-name="Group 10" transform="translate(10.895 2.294)" clip-path="url(#clip-path-35)">
            <g id="Group_9-2" data-name="Group 9" transform="translate(-11.468 -104.362)" clip-path="url(#clip-path-30)">
              <path id="Path_250-2" data-name="Path 250" d="M72-277.678H82.322V-288H72Z" transform="translate(-63.399 389.495)"/>
            </g>
          </g>
          <g id="Group_14-2" data-name="Group 14" clip-path="url(#clip-path-37)">
            <g id="Group_13-2" data-name="Group 13" transform="translate(-0.573 -102.069)" clip-path="url(#clip-path-30)">
              <path id="Path_256-2" data-name="Path 256" d="M53-273.678H65.615V-284H53Z" transform="translate(-55.294 383.202)"/>
            </g>
          </g>
          <g id="Group_18-2" data-name="Group 18" transform="translate(1.72 6.308)" clip-path="url(#clip-path-39)">
            <g id="Group_17-2" data-name="Group 17" transform="translate(-2.294 -108.376)" clip-path="url(#clip-path-30)">
              <path id="Path_262-2" data-name="Path 262" d="M56-285.105H67.468V-296H56Z" transform="translate(-56.573 401.509)"/>
            </g>
          </g>
          <g id="Group_20-2" data-name="Group 20" transform="translate(1.147 0.573)" clip-path="url(#clip-path-41)">
            <g id="Group_19-2" data-name="Group 19" transform="translate(-1.72 -102.642)" clip-path="url(#clip-path-30)">
              <path id="Path_265-2" data-name="Path 265" d="M55-275.532H70.482V-287H55Z" transform="translate(-56.147 386.775)"/>
            </g>
          </g>
          <g id="Group_22-2" data-name="Group 22" transform="translate(8.028 4.014)" clip-path="url(#clip-path-43)">
            <g id="Group_21-2" data-name="Group 21" transform="translate(-8.601 -106.083)" clip-path="url(#clip-path-30)">
              <path id="Path_268-2" data-name="Path 268" d="M67-282.811H78.468V-296H67Z" transform="translate(-61.266 399.215)"/>
            </g>
          </g>
          <g id="Group_24-2" data-name="Group 24" transform="translate(6.881 2.867)" clip-path="url(#clip-path-45)">
            <g id="Group_23-2" data-name="Group 23" transform="translate(-7.454 -104.936)" clip-path="url(#clip-path-30)">
              <path id="Path_271-2" data-name="Path 271" d="M65-277.825h9.175V-287H65Z" transform="translate(-60.413 389.069)"/>
            </g>
          </g>
          <g id="Group_28-2" data-name="Group 28" transform="translate(6.881 4.587)" clip-path="url(#clip-path-47)">
            <g id="Group_27-3" data-name="Group 27" transform="translate(-7.454 -106.656)" clip-path="url(#clip-path-30)">
              <path id="Path_277-2" data-name="Path 277" d="M65-282.1h9.748V-293H65Z" transform="translate(-60.413 396.789)"/>
            </g>
          </g>
        </g>
        <g id="Group_106" data-name="Group 106" transform="translate(69.28 7.828)">
          <g id="Group_16-3" data-name="Group 16" transform="translate(7.454 1.147)" clip-path="url(#clip-path-49)">
            <g id="Group_15-3" data-name="Group 15" transform="translate(-109.523 -2.294)" clip-path="url(#clip-path-50)">
              <path id="Path_259-3" data-name="Path 259" d="M70.6-294H62v8.028h8.6Z" transform="translate(44.656 293.427)"/>
            </g>
          </g>
          <g id="Group_12-3" data-name="Group 12" transform="translate(5.161 1.72)" clip-path="url(#clip-path-51)">
            <g id="Group_11-3" data-name="Group 11" transform="translate(-107.23 -2.867)" clip-path="url(#clip-path-50)">
              <path id="Path_253-3" data-name="Path 253" d="M74.175-293H65v7.454h9.175Z" transform="translate(39.362 293)"/>
            </g>
          </g>
          <g id="Group_8-3" data-name="Group 8" transform="translate(6.308 2.867)" clip-path="url(#clip-path-53)">
            <g id="Group_7-3" data-name="Group 7" transform="translate(-108.376 -4.014)" clip-path="url(#clip-path-50)">
              <path id="Path_247-3" data-name="Path 247" d="M70.468-291H59v9.175H70.468Z" transform="translate(46.509 292.147)"/>
            </g>
          </g>
          <g id="Group_10-3" data-name="Group 10" transform="translate(0 4.587)" clip-path="url(#clip-path-55)">
            <g id="Group_9-3" data-name="Group 9" transform="translate(-102.069 -5.734)" clip-path="url(#clip-path-50)">
              <path id="Path_250-3" data-name="Path 250" d="M82.322-288H72v10.322H82.322Z" transform="translate(27.202 290.867)"/>
            </g>
          </g>
          <g id="Group_14-3" data-name="Group 14" transform="translate(8.601 6.881)" clip-path="url(#clip-path-57)">
            <g id="Group_13-3" data-name="Group 13" transform="translate(-110.67 -8.028)" clip-path="url(#clip-path-50)">
              <path id="Path_256-3" data-name="Path 256" d="M65.615-284H53v10.322H65.615Z" transform="translate(54.803 289.161)"/>
            </g>
          </g>
          <g id="Group_18-3" data-name="Group 18" transform="translate(8.028)" clip-path="url(#clip-path-59)">
            <g id="Group_17-3" data-name="Group 17" transform="translate(-110.097 -1.147)" clip-path="url(#clip-path-50)">
              <path id="Path_262-3" data-name="Path 262" d="M67.468-296H56v10.895H67.468Z" transform="translate(51.23 294.28)"/>
            </g>
          </g>
          <g id="Group_20-3" data-name="Group 20" transform="translate(4.587 5.161)" clip-path="url(#clip-path-61)">
            <g id="Group_19-3" data-name="Group 19" transform="translate(-106.656 -6.308)" clip-path="url(#clip-path-50)">
              <path id="Path_265-3" data-name="Path 265" d="M70.482-287H55v11.468H70.482Z" transform="translate(48.789 290.441)"/>
            </g>
          </g>
          <g id="Group_22-3" data-name="Group 22" transform="translate(1.72 0)" clip-path="url(#clip-path-63)">
            <g id="Group_21-3" data-name="Group 21" transform="translate(-103.789 -1.147)" clip-path="url(#clip-path-50)">
              <path id="Path_268-3" data-name="Path 268" d="M78.468-296H67v13.189H78.468Z" transform="translate(33.922 294.28)"/>
            </g>
          </g>
          <g id="Group_24-3" data-name="Group 24" transform="translate(5.161 5.161)" clip-path="url(#clip-path-65)">
            <g id="Group_23-3" data-name="Group 23" transform="translate(-107.23 -6.308)" clip-path="url(#clip-path-50)">
              <path id="Path_271-3" data-name="Path 271" d="M74.175-287H65v9.175h9.175Z" transform="translate(39.362 290.441)"/>
            </g>
          </g>
          <g id="Group_28-3" data-name="Group 28" transform="translate(4.587 1.72)" clip-path="url(#clip-path-67)">
            <g id="Group_27-4" data-name="Group 27" transform="translate(-106.656 -2.867)" clip-path="url(#clip-path-50)">
              <path id="Path_277-3" data-name="Path 277" d="M74.748-293H65V-282.1h9.748Z" transform="translate(38.789 293)"/>
            </g>
          </g>
        </g>
        <g id="Group_107" data-name="Group 107" transform="translate(69.28 25.106)">
          <g id="Group_16-4" data-name="Group 16" transform="translate(7.454 8.028)" clip-path="url(#clip-path-69)">
            <g id="Group_15-4" data-name="Group 15" transform="translate(-109.523 -110.097)" clip-path="url(#clip-path-70)">
              <path id="Path_259-4" data-name="Path 259" d="M70.6-285.972H62V-294h8.6Z" transform="translate(44.656 401.229)"/>
            </g>
          </g>
          <g id="Group_12-4" data-name="Group 12" transform="translate(5.161 8.028)" clip-path="url(#clip-path-71)">
            <g id="Group_11-4" data-name="Group 11" transform="translate(-107.229 -110.097)" clip-path="url(#clip-path-70)">
              <path id="Path_253-4" data-name="Path 253" d="M74.175-285.545H65V-293h9.175Z" transform="translate(39.362 400.229)"/>
            </g>
          </g>
          <g id="Group_8-4" data-name="Group 8" transform="translate(6.308 5.161)" clip-path="url(#clip-path-73)">
            <g id="Group_7-4" data-name="Group 7" transform="translate(-108.376 -107.229)" clip-path="url(#clip-path-70)">
              <path id="Path_247-4" data-name="Path 247" d="M70.468-281.825H59V-291H70.468Z" transform="translate(46.509 395.362)"/>
            </g>
          </g>
          <g id="Group_10-4" data-name="Group 10" transform="translate(0 2.294)" clip-path="url(#clip-path-75)">
            <g id="Group_9-4" data-name="Group 9" transform="translate(-102.069 -104.362)" clip-path="url(#clip-path-70)">
              <path id="Path_250-4" data-name="Path 250" d="M82.322-277.678H72V-288H82.322Z" transform="translate(27.202 389.495)"/>
            </g>
          </g>
          <g id="Group_14-4" data-name="Group 14" transform="translate(8.601)" clip-path="url(#clip-path-77)">
            <g id="Group_13-4" data-name="Group 13" transform="translate(-110.67 -102.069)" clip-path="url(#clip-path-70)">
              <path id="Path_256-4" data-name="Path 256" d="M65.615-273.678H53V-284H65.615Z" transform="translate(54.803 383.202)"/>
            </g>
          </g>
          <g id="Group_18-4" data-name="Group 18" transform="translate(8.028 6.308)" clip-path="url(#clip-path-79)">
            <g id="Group_17-4" data-name="Group 17" transform="translate(-110.097 -108.376)" clip-path="url(#clip-path-70)">
              <path id="Path_262-4" data-name="Path 262" d="M67.468-285.105H56V-296H67.468Z" transform="translate(51.229 401.509)"/>
            </g>
          </g>
          <g id="Group_20-4" data-name="Group 20" transform="translate(4.587 0.573)" clip-path="url(#clip-path-81)">
            <g id="Group_19-4" data-name="Group 19" transform="translate(-106.656 -102.642)" clip-path="url(#clip-path-70)">
              <path id="Path_265-4" data-name="Path 265" d="M70.482-275.532H55V-287H70.482Z" transform="translate(48.789 386.775)"/>
            </g>
          </g>
          <g id="Group_22-4" data-name="Group 22" transform="translate(1.72 4.014)" clip-path="url(#clip-path-83)">
            <g id="Group_21-4" data-name="Group 21" transform="translate(-103.789 -106.083)" clip-path="url(#clip-path-70)">
              <path id="Path_268-4" data-name="Path 268" d="M78.468-282.811H67V-296H78.468Z" transform="translate(33.922 399.215)"/>
            </g>
          </g>
          <g id="Group_24-4" data-name="Group 24" transform="translate(5.161 2.867)" clip-path="url(#clip-path-85)">
            <g id="Group_23-4" data-name="Group 23" transform="translate(-107.229 -104.936)" clip-path="url(#clip-path-70)">
              <path id="Path_271-4" data-name="Path 271" d="M74.175-277.825H65V-287h9.175Z" transform="translate(39.362 389.069)"/>
            </g>
          </g>
          <g id="Group_28-4" data-name="Group 28" transform="translate(4.587 4.587)" clip-path="url(#clip-path-87)">
            <g id="Group_27-5" data-name="Group 27" transform="translate(-106.656 -106.656)" clip-path="url(#clip-path-70)">
              <path id="Path_277-4" data-name="Path 277" d="M74.748-282.1H65V-293h9.748Z" transform="translate(38.789 396.789)"/>
            </g>
          </g>
        </g>
      </g>
    </g>
    <g transform="matrix(1, 0, 0, 1, 43, 182.01)" filter="url(#Path_1)">
      <path id="Path_1-2" data-name="Path 1" d="M126.042,4.8Q96.992,19.382,67.958,33.979,39.182,19.6,10.437,5.226C6.948,3.489,3.474,1.737,0,0V67.958H135.916V0Z" transform="translate(9 46.84)" fill="#bbddde"/>
    </g>
    <g transform="matrix(1, 0, 0, 1, 43, 182.01)" filter="url(#Path_241)">
      <path id="Path_241-2" data-name="Path 241" d="M135.916,535.2v-2.514a6.536,6.536,0,0,0-3.55-5.821L67.958,492.7,3.413,526.816A6.567,6.567,0,0,0,0,532.576V535.2Z" transform="translate(9 -420.54)" fill="#c3e7e8"/>
    </g>
  </g>
</svg>
