<svg xmlns="http://www.w3.org/2000/svg" xmlns:xlink="http://www.w3.org/1999/xlink" width="126" height="136" viewBox="0 0 126 136">
  <defs>
    <filter id="Rectangle_3" x="0" y="0" width="126" height="136" filterUnits="userSpaceOnUse">
      <feOffset dy="10" input="SourceAlpha"/>
      <feGaussianBlur stdDeviation="5" result="blur"/>
      <feFlood flood-opacity="0.161"/>
      <feComposite operator="in" in2="blur"/>
      <feComposite in="SourceGraphic"/>
    </filter>
    <clipPath id="clip-path">
      <path id="Path_261" data-name="Path 261" d="M68.693-288.992a1.2,1.2,0,0,0-1.019.486c-.267.385-.365.495.013.848.134.124.287.228.43.34l-.012.03-.863-.2L67-287.18a15.548,15.548,0,0,0,1.687.48c-.065-.164-.1-.276-.152-.382a.811.811,0,0,1,.042-.921,1.435,1.435,0,0,1,.376-.337c.292-.169.6-.308.922-.471-.06-.031-.114-.064-.169-.088A2.458,2.458,0,0,0,68.693-288.992Z" transform="translate(-67 289)" fill="none"/>
    </clipPath>
    <clipPath id="clip-path-2">
      <path id="Path_260" data-name="Path 260" d="M57-177.995H175.455V-293H57Z" transform="translate(-57 293)" fill="none"/>
    </clipPath>
    <clipPath id="clip-path-3">
      <path id="Path_255" data-name="Path 255" d="M73.136-288h0c-.173,0-.345.028-.521.03-.207,0-.415-.011-.622,0a3.284,3.284,0,0,0-1.723.563.655.655,0,0,0-.257.359.554.554,0,0,0,.191.518,1.531,1.531,0,0,0,1.222.227.541.541,0,0,0,.33-.138.279.279,0,0,0,0-.356.426.426,0,0,0-.371-.138.668.668,0,0,0-.459.338.251.251,0,0,1,.014-.22.577.577,0,0,1,.155-.175,1.415,1.415,0,0,1,.574-.277.642.642,0,0,1,.44.028.344.344,0,0,1,.18.25.668.668,0,0,1-.13.372v0c0,.06.047.071.11.061h0c.252-.088.494-.2.74-.3.163-.068.569-.148.4-.388a1.3,1.3,0,0,0-.114-.124.579.579,0,0,1-.144-.3.867.867,0,0,1,.015-.165C73.174-287.909,73.174-287.976,73.136-288Z" transform="translate(-70 288)" fill="none"/>
    </clipPath>
    <clipPath id="clip-path-5">
      <path id="Path_249" data-name="Path 249" d="M65.527-283.462c-.027.121-.043.227.107.319a7.861,7.861,0,0,1,.7.507c.155.121.183.113.321-.024a8.982,8.982,0,0,1,.685-.614c.289-.233.6-.438.889-.674.229-.19.433-.406.642-.616A4.213,4.213,0,0,0,69.7-285.7a.878.878,0,0,0,.053-.3c-.008.082-.485.264-.568.3a4.9,4.9,0,0,1-.646.232,5.288,5.288,0,0,1-1.371.2,5.437,5.437,0,0,1-2.574-.673.421.421,0,0,0-.525.145.663.663,0,0,0-.03.5c.08.223.167.444.25.665.108.289.214.578.324.866a.129.129,0,0,0,.049.068c.2.107.4.211.619.326a1.962,1.962,0,0,0-.506-1.67,5.138,5.138,0,0,1,.566.375.739.739,0,0,1,.309.719C65.624-283.786,65.563-283.626,65.527-283.462Zm-.91-2.111a1.844,1.844,0,0,1,.3.113,5.64,5.64,0,0,0,1.537.641,4.506,4.506,0,0,0,1.5.082c.211-.02.418-.074.656-.119a.869.869,0,0,1-.548.451,2.625,2.625,0,0,1-.919.185,2.179,2.179,0,0,1-1.418-.49C65.383-285.011,64.991-285.273,64.617-285.572Z" transform="translate(-64 286)" fill="none"/>
    </clipPath>
    <clipPath id="clip-path-7">
      <path id="Path_252" data-name="Path 252" d="M77.449-278.409a5.592,5.592,0,0,0,1.458-1.037c.245-.2.492-.406.751-.592a5.875,5.875,0,0,1,1.726-.824c.221-.067.272-.2.15-.392-.094-.153-.209-.295-.313-.443a3.864,3.864,0,0,0-.833-.793c-.286-.225-.91-.677-1.281-.448a1.247,1.247,0,0,0-.391.483A20.642,20.642,0,0,1,77-279.566c.5.247.539.675.383,1.166A.382.382,0,0,0,77.449-278.409Z" transform="translate(-77 283)" fill="none"/>
    </clipPath>
    <clipPath id="clip-path-9">
      <path id="Path_258" data-name="Path 258" d="M58.151-277.532a.7.7,0,0,0,.093.056c.184.092.37.183.556.272h0l.042.016c.33.127.659.259.977.413l.011,0a2.948,2.948,0,0,1,.988.6l.081.086h0c.425.373.78.814,1.175,1.226a1.468,1.468,0,0,0,1.459.407c.463-.1.91-.28,1.364-.424l0-.043c-.335-.135-.678-.252-1-.409a9.007,9.007,0,0,1-2.277-1.553,8.478,8.478,0,0,1-.838-.92c-.259-.331-.47-.687-.707-1.032-.064-.094-.132-.208-.282-.159a4.7,4.7,0,0,0-1.239.547,1.457,1.457,0,0,0-.535.517v0a.34.34,0,0,0,.006.23.425.425,0,0,0,.127.159Z" transform="translate(-58 279)" fill="none"/>
    </clipPath>
    <clipPath id="clip-path-11">
      <path id="Path_264" data-name="Path 264" d="M61.556-286.125a.21.21,0,0,0,.071.023c.213.022.426.035.638.063.192.026.382.065.571.106.132.029.262.069.41.109a.625.625,0,0,0-.011-.1,15.947,15.947,0,0,1-.566-1.737.763.763,0,0,1,.007-.476.549.549,0,0,1,.507-.282c.2,0,.369.137.562.132a.621.621,0,0,0,.467-.322c.128-.214.174-.468.281-.694a1.4,1.4,0,0,1,.673-.659,1.61,1.61,0,0,1,.975-.062.635.635,0,0,0,.421-.1c.511-.367-.145-.633-.435-.743a2.294,2.294,0,0,0-1.529,0,4.193,4.193,0,0,0-1.68,1.186c-.472.509-.877,1.077-1.339,1.595a3.047,3.047,0,0,0-.475.615A1.018,1.018,0,0,0,61.556-286.125Z" transform="translate(-61 291)" fill="none"/>
    </clipPath>
    <clipPath id="clip-path-13">
      <path id="Path_267" data-name="Path 267" d="M61.993-281.235a7.352,7.352,0,0,1,1.2.362,4.552,4.552,0,0,1,.568.278,3.191,3.191,0,0,1,.466.372c.029.025.089.051.044.083a1.935,1.935,0,0,1-.347-.148q-.182-.074-.367-.14-.37-.134-.749-.239a12.093,12.093,0,0,0-1.478-.3.917.917,0,0,1-.352-.067.283.283,0,0,0,.009.048l0,0a7.28,7.28,0,0,0,.859,1.22,13.206,13.206,0,0,0,.972,1.074,13.457,13.457,0,0,0,1.109.982q.294.233.6.449c.2.138.4.245.6.367a5.139,5.139,0,0,0,1.359.554,2.993,2.993,0,0,0,3.149-1.13c.12-.22.243-.861-.035-1.048a.3.3,0,0,0-.118-.047,14.558,14.558,0,0,1-5.538-2.621c-.209-.119-.423-.231-.643-.332a5.2,5.2,0,0,0-1.471-.446,3.165,3.165,0,0,0-1.449.09.772.772,0,0,0-.389.244,6.752,6.752,0,0,0,.986.195C61.322-281.368,61.659-281.309,61.993-281.235Z" transform="translate(-60 282)" fill="none"/>
    </clipPath>
    <clipPath id="clip-path-15">
      <path id="Path_270" data-name="Path 270" d="M72.312-289.905a5.437,5.437,0,0,0,.751-.031c.367-.087.673-.3,1.051-.358a1.927,1.927,0,0,1,1.284.2c.345.2.684.415,1.023.625a.875.875,0,0,1,.117.12,2.685,2.685,0,0,1-.37-.069c-.312-.109-.614-.253-.932-.336a2.275,2.275,0,0,0-.608-.009c.02.1.08.139.152.212a1.725,1.725,0,0,1,.221.277,1.7,1.7,0,0,1,.25.656,1.693,1.693,0,0,1-.054.743,7.63,7.63,0,0,1-.323.716c-.077.185-.156.37-.216.56a1.274,1.274,0,0,0,.157.958c.027.056.06.108.092.166a4.574,4.574,0,0,1,.295-.749c.136-.243.3-.471.451-.7a2.869,2.869,0,0,0,.538-1.248c.019-.179.055-.383.28-.4a1.96,1.96,0,0,1,.118.593c0,.008,0,.016,0,.024.052.482-.381.863-.631,1.226a5.921,5.921,0,0,0-.693,1.31q-.036.1-.067.2a6.341,6.341,0,0,0-.2.837c-.025.144-.047.289-.067.434a1.418,1.418,0,0,0-.049.423c.041-.008.072-.086.088-.123.108-.241.2-.491.323-.724.281-.526.566-1.051.851-1.575s.646-.971.973-1.457a3.151,3.151,0,0,0,.631-1.661,1.458,1.458,0,0,0-.906-1.423,10.694,10.694,0,0,0-2.5-.493c-.857-.059-2.124-.043-2.347,1C71.991-289.932,72.131-289.911,72.312-289.905Z" transform="translate(-72 291)" fill="none"/>
    </clipPath>
    <clipPath id="clip-path-17">
      <path id="Path_273" data-name="Path 273" d="M70.084-279.569c.519.3,1.054.574,1.59.841a1.63,1.63,0,0,0,.567.173.82.82,0,0,0,.53-.118,1.328,1.328,0,0,0,.463-.675,3.576,3.576,0,0,0,.215-1.345c-.01-.327-.044-1.041-.3-1.267-.113-.1-.148,0-.266.1a7.746,7.746,0,0,1-1.455.828C71.222-280.929,69.62-279.839,70.084-279.569Z" transform="translate(-70 282)" fill="none"/>
    </clipPath>
    <clipPath id="clip-path-19">
      <path id="Path_279" data-name="Path 279" d="M70.15-282.908a1.559,1.559,0,0,0,.181-.214,3.992,3.992,0,0,1,.758-.712,6.8,6.8,0,0,1,.844-.406,3.8,3.8,0,0,0,1.546-1.219,3.638,3.638,0,0,0,.495-1.327,1.42,1.42,0,0,0,0-.727c-.074-.219-.6-.679-.828-.4-.148.18.1.542.116.735a2.092,2.092,0,0,1-.244,1.114,4.542,4.542,0,0,1-1.218,1.36c-.359.293-.734.57-1.074.884-.294.272-.679.576-.732.994,0-.022.119-.061.14-.076Z" transform="translate(-70 288)" fill="none"/>
    </clipPath>
    <clipPath id="clip-path-21">
      <path id="Path_381" data-name="Path 381" d="M129.5-115.347c-.394-.027-.82-.06-1.276-.069-.912-.032-1.941-.061-3.065-.064s-2.343.033-3.623.1l-.974.052-.992.064-1.244.092,0-.041.017-.186c0-.066.025-.137.037-.211l.045-.231.073-.241.038-.127c.014-.042.034-.083.05-.125l.106-.26a4.755,4.755,0,0,1,.29-.511,4.7,4.7,0,0,1,.367-.489,4.762,4.762,0,0,1,.443-.425,4.719,4.719,0,0,1,.481-.356l.251-.139c.041-.022.081-.047.123-.067l.125-.054.24-.1.233-.075a2.814,2.814,0,0,1,.417-.106l.176-.037.152-.016.29-.03h-.446l-.181.019a2.93,2.93,0,0,0-.433.064l-.247.052-.258.081-.135.043c-.045.016-.089.037-.134.056l-.276.119a4.975,4.975,0,0,0-.544.322,5.009,5.009,0,0,0-.519.406,5.088,5.088,0,0,0-.451.489,5.119,5.119,0,0,0-.376.531l-.148.276c-.023.045-.049.09-.07.135l-.057.137-.109.265-.079.256c-.023.084-.053.159-.067.24l-.045.227-.031.162-.15.011-1.048.077c-.352.026-.706.056-1.063.073l-.841.049a.963.963,0,0,0-.041-.122l-.039-.1-.051-.1a2,2,0,0,0-.124-.208,1.931,1.931,0,0,0-.162-.2,1.846,1.846,0,0,0-.188-.174,1.867,1.867,0,0,0-.21-.139,1.89,1.89,0,0,0-.214-.1,1.8,1.8,0,0,0-.21-.063l-.1-.021-.092-.011a1.058,1.058,0,0,0-.16-.009.738.738,0,0,0-.122,0l-.1.01.1.02a.685.685,0,0,1,.115.03.992.992,0,0,1,.143.051l.079.034.08.045a1.6,1.6,0,0,1,.162.106,1.642,1.642,0,0,1,.151.138,1.565,1.565,0,0,1,.133.158,1.542,1.542,0,0,1,.1.174,1.518,1.518,0,0,1,.076.176,1.482,1.482,0,0,1,.043.17l.014.079.006.074c0,.005,0,.009,0,.014l-.716.042-2.21.127-2.227.162c-1.487.081-2.977.152-4.441.121-.732-.019-1.458-.05-2.174-.1-.358-.023-.713-.058-1.066-.1s-.7-.079-1.048-.126l-1.03-.134-.342-.048.008-.009.219-.009.113-.191.215-.044.083-.206.207-.075.056-.216.2-.1.031-.221.185-.12.011-.223.174-.136-.008-.223.163-.15-.024-.221.151-.161-.04-.219.129-.213-.233.083-.2-.087-.187.115-.206-.073-.178.129-.211-.056-.167.144-.216-.036-.151.16-.218-.012-.132.177-.218.016-.108.193-.214.046-.08.206-.2.078-.049.216-.191.107-.017.222-.174.134.014.221-.154.157.043.218-.118.157c-.311-.036-.619-.069-.924-.1-1.276-.128-2.495-.158-3.617-.193s-2.156,0-3.068.024c-.457.008-.881.038-1.274.062s-.754.051-1.08.081c-1.3.1-2.051.208-2.051.208v.14s.744.119,2.046.246c.326.035.686.067,1.079.1s.818.06,1.269.1c.9.084,1.919.147,3.028.227.555.043,1.133.085,1.731.122l.913.059c.31.019.624.037.944.049.637.028,1.3.039,1.972.04s1.365,0,2.067-.023c1.4-.016,2.851-.05,4.319.008l.551.02.553.015q.554.018,1.111.045l1.116.065,1.119.078c1.5.076,2.981.184,4.455.187l2.195-.008c.362,0,.721-.007,1.078-.02l1.062-.034c.205-.008.41-.014.613-.02v.02l-.13.121.028.177-.111.139.053.171-.089.154.077.161-.067.166.1.149-.045.173.116.135-.025.177.129.121-.007.179.14.109.008.179.148.1.021.178.154.087.064.192.069-.189.157-.083.026-.178.151-.094.013-.179.143-.105v-.18l.134-.117-.017-.179.123-.13-.035-.176.107-.143-.056-.171.088-.156-.079-.161.064-.168-.1-.146.035-.176-.126-.126,0-.1.192-.012,1-.071.969-.079,3.583-.322c.554-.06,1.089-.092,1.6-.137s.992-.09,1.444-.131c.9-.084,1.705-.142,2.355-.21,1.3-.126,2.067-.231,2.067-.231v-.14s-.768-.091-2.074-.193C130.283-115.3,129.9-115.32,129.5-115.347Zm-32.154.042c.083-.076.167-.156.257-.233l.134-.117.138-.114c.046-.037.092-.076.139-.112l.141-.108c.092-.073.187-.138.278-.2s.181-.123.267-.179l.125-.081.119-.071c.077-.045.146-.087.209-.122l.165-.087.143-.076-.135.09-.155.1c-.059.041-.123.09-.195.142l-.111.082-.115.093c-.079.064-.162.129-.244.2s-.169.146-.253.227l-.127.119c-.042.04-.083.083-.125.124l-.123.125-.119.127c-.08.083-.153.17-.226.252l-.017.02-.341-.043C97.237-115.194,97.292-115.248,97.351-115.3Zm21.454,1.689-.017.142c-.005.047-.012.095-.016.142s-.008.095-.012.141c-.009.094-.012.186-.017.276s-.005.176-.006.259c0,.041,0,.081,0,.12s0,.076,0,.112c0,.072,0,.138.007.2s.009.109.012.151l.011.132-.024-.13-.027-.15c-.009-.058-.017-.124-.027-.2l-.015-.112-.011-.12c-.008-.083-.017-.17-.02-.261s-.011-.185-.011-.28c0-.048,0-.1,0-.144s0-.1,0-.146,0-.1,0-.146c0-.021,0-.041,0-.062h.013l.167-.01Z" transform="translate(-85 119)" fill="none"/>
    </clipPath>
    <clipPath id="clip-path-22">
      <path id="Path_380" data-name="Path 380" d="M57-229.842h65.053V-293H57Z" transform="translate(-57 293)" fill="none"/>
    </clipPath>
    <clipPath id="clip-path-23">
      <path id="Path_384" data-name="Path 384" d="M69.211-259.127l-.128,0a1.116,1.116,0,0,0-.356.071,1.877,1.877,0,0,0-.482.294,3.659,3.659,0,0,0-.5.53,12.033,12.033,0,0,0-1.669,3.494c-.051.153-.1.307-.145.46-.009-.283-.015-.565-.033-.843q-.032-.513-.063-1.015l-.071-.992-.079-.963-.182-2.015.183-.074.2.095.192-.111.213.064.171-.14.221.028.145-.166.223-.009.115-.187.219-.043.084-.2.21-.073.057-.211.2-.1.032-.216.188-.117.011-.218.176-.133-.008-.218.165-.146-.025-.217.154-.158-.041-.215.131-.208-.237.081-.2-.085-.19.112-.21-.072-.181.126-.215-.055-.169.141-.219-.035-.154.157-.222-.012-.134.173-.221.015-.11.189-.217.045-.081.2-.208.076-.05.212-.194.105-.017.217-.1.075-.022-.24c-.06-.551-.092-1.079-.137-1.582s-.09-.976-.131-1.426c-.084-.9-.142-1.674-.21-2.321-.127-1.295-.231-2.013-.231-2.013h-.14s-.091.718-.193,2.019c-.028.325-.052.662-.078,1.054s-.06.816-.069,1.27c-.032.907-.061,1.932-.064,3.051s.033,2.331.1,3.606l.052.969.064.988.151,2.035.077,1.043c.026.35.055.7.073,1.058q.062,1.065.125,2.153l.127,2.2.162,2.216c.081,1.48.153,2.963.121,4.421-.015.567-.037,1.13-.071,1.689l-.18-.134-.021-.262-.235-.127-.06-.256-.252-.092-.1-.245-.263-.055-.133-.228-.268-.019-.163-.209-.268.014-.186-.189-.265.042-.2-.17-.26.066-.219-.152-.254.087-.23-.136-.247.1-.286-.1.159.252-.05.259.186.191-.03.263.2.177-.01.264.214.161.013.264.227.142.039.261.241.118.068.255.254.089.1.244.264.052.139.226.269.011.175.2.267-.034.207.169.258-.077.232.135.243-.115.249.1.042-.027s0,.008,0,.012c-.042.351-.079.7-.125,1.043l-.134,1.025-.142,1.006c-.074.551-.138,1.09-.192,1.623a4.262,4.262,0,0,0-.8-1.464,1.177,1.177,0,0,0-.524-.349.5.5,0,0,0-.1-.021.357.357,0,0,0-.075-.007h-.062l.061.008a.357.357,0,0,1,.072.016.446.446,0,0,1,.093.032,1.1,1.1,0,0,1,.449.389A4.343,4.343,0,0,1,64.1-232.7a9.773,9.773,0,0,1,.137,1.257c-.05.826-.072,1.621-.1,2.372-.021,1.118,0,2.145.024,3.053.008.455.038.877.062,1.268s.051.751.08,1.075c.1,1.3.209,2.041.209,2.041h.14s.119-.74.246-2.037c.035-.324.067-.683.1-1.074s.06-.814.1-1.263c.029-.313.056-.641.081-.98.073.183.151.36.236.529a3.948,3.948,0,0,0,.636.948,1.889,1.889,0,0,0,.352.3,1.175,1.175,0,0,0,.322.148.657.657,0,0,0,.128.028.448.448,0,0,0,.1.009l.08,0-.079-.009a.465.465,0,0,1-.093-.018.622.622,0,0,1-.122-.039,1.12,1.12,0,0,1-.294-.172,1.8,1.8,0,0,1-.306-.315,3.769,3.769,0,0,1-.516-.965,7.788,7.788,0,0,1-.343-1.21c-.011-.053-.02-.106-.03-.159q.038-.537.079-1.107c.043-.552.085-1.128.122-1.723q.029-.447.059-.909c.019-.308.036-.621.049-.939.028-.634.039-1.291.04-1.963s0-1.358-.023-2.058c-.016-1.4-.05-2.838.008-4.3q.01-.274.02-.549t.015-.551q.018-.552.045-1.106l.065-1.111.078-1.113c.076-1.492.184-2.967.186-4.434q0-1.1-.008-2.184c0-.025,0-.05,0-.076.028-.2.057-.4.09-.608.053-.319.11-.649.177-.983s.139-.672.223-1.007a11.746,11.746,0,0,1,1.371-3.53,3.538,3.538,0,0,1,.446-.549,1.808,1.808,0,0,1,.444-.318,1.1,1.1,0,0,1,.342-.095Zm-3.519-1.865.136-.114.14-.112c.047-.037.093-.075.141-.11l.143-.106c.094-.071.19-.135.283-.2s.184-.121.271-.175l.127-.079.121-.069c.078-.044.148-.085.212-.12l.168-.085.146-.074-.137.088-.157.1c-.06.04-.125.088-.2.139l-.113.08-.117.091c-.08.062-.165.126-.248.2s-.172.143-.257.222l-.129.117c-.043.039-.084.081-.127.121l-.125.122-.121.125c-.081.081-.155.167-.23.247-.052.059-.1.115-.149.171q-.016-.183-.033-.363C65.523-260.845,65.6-260.92,65.692-260.992Zm-.947,22.731c-.09-.1-.18-.2-.278-.3l-.146-.151-.152-.148c-.051-.049-.1-.1-.153-.147l-.156-.142c-.1-.1-.209-.183-.31-.269s-.2-.165-.3-.241l-.141-.11-.136-.1c-.088-.062-.167-.12-.239-.169l-.19-.122-.166-.107.176.089.2.1c.077.041.163.092.257.145l.147.084.153.1c.105.066.217.134.328.212s.229.154.342.24l.173.127c.058.043.114.089.171.133l.17.135.165.138c.11.09.213.186.315.276l.058.054q-.019.226-.044.451C64.914-238.069,64.831-238.164,64.745-238.261Z" transform="translate(-61 269)" fill="none"/>
    </clipPath>
    <clipPath id="clip-path-25">
      <path id="Path_387" data-name="Path 387" d="M239.487-259.041a4.135,4.135,0,0,1,.249-.556,1.589,1.589,0,0,1,.28-.375.643.643,0,0,1,.256-.156c.069-.013.107-.017.107-.017s-.038,0-.108.011a.658.658,0,0,0-.271.144,1.625,1.625,0,0,0-.308.367,4.2,4.2,0,0,0-.286.551,14.629,14.629,0,0,0-.834,3.213c0,.026-.008.052-.012.079-.011-.135-.021-.271-.032-.4q-.043-.484-.085-.956c-.121-1.254-.236-2.44-.341-3.535-.062-.547-.1-1.073-.145-1.572s-.1-.974-.139-1.419c-.089-.892-.152-1.672-.223-2.313-.133-1.284-.241-2.019-.241-2.019h-.138s-.085.736-.177,2.028c-.026.323-.047.68-.07,1.07s-.054.811-.059,1.261c-.025.9-.047,1.918-.042,3.028.017,1.047.045,2.179.113,3.366l-.1-.025-.1-.193-.218-.023-.128-.177-.219.008-.152-.156-.215.041-.174-.132-.207.071-.191-.106-.2.1-.2-.08-.181.122-.212-.056-.167.141-.216-.035-.153.156-.218-.016-.14.168h-.219l-.128.177-.242.05.219.112.077.2.212.057.092.2.216.042.107.191.218.025.123.182.22.005.139.169.219-.018.158.152.215-.044.177.13.207-.074.194.1.193-.106.209.069.172-.137.217.033.147-.163.22,0,.091-.138c0,.049.006.1.009.145q.034.484.07.98l.162,2.018.083,1.034c.028.348.059.7.079,1.049q.069,1.056.138,2.135t.14,2.182l.175,2.2c.09,1.468.171,2.939.149,4.386-.014.723-.04,1.44-.086,2.148-.005.092-.013.183-.02.275l-.037-.034,0-.162-.134-.092-.021-.161-.146-.071-.044-.156-.155-.049-.066-.148-.161-.028-.085-.138-.163-.007-.1-.127-.163.01-.113-.116-.161.025-.123-.107-.158.038-.13-.1-.156.048-.167-.078.08.164-.046.156.1.128-.034.159.11.121-.022.161.119.112-.008.162.128.1.007.163.138.087.026.161.148.069.047.156.156.048.07.147.162.023.093.134.163-.005.114.116.16-.032.132.1.154-.056.144.077.042-.022c-.03.281-.06.561-.1.838l-.125,1.018-.133,1c-.083.659-.156,1.3-.21,1.937-.117,1.262-.139,2.465-.165,3.573-.01.812,0,1.575.023,2.279l-.016.059-.07.207a1.8,1.8,0,0,1-.079.2c-.03.066-.054.135-.088.2l-.1.189c-.033.062-.075.118-.111.176a1.217,1.217,0,0,1-.119.162,1.506,1.506,0,0,1-.126.147l-.131.129c-.045.038-.092.07-.136.1-.022.016-.043.034-.066.048l-.068.037-.127.068c-.085.028-.16.058-.224.074l-.206.033.211,0c.067-.007.147-.027.241-.044l.142-.052.078-.029c.026-.012.05-.027.076-.04.051-.029.107-.057.161-.09l.159-.117a1.618,1.618,0,0,0,.157-.137,1.4,1.4,0,0,0,.152-.156c.048-.056.1-.111.146-.172l.136-.187c.011-.015.02-.031.03-.047.011.447.044.862.069,1.248s.056.745.087,1.067c.111,1.288.22,2.025.22,2.025h.138s.112-.735.229-2.023c.032-.322.061-.678.091-1.066s.054-.809.094-1.254c.076-.892.132-1.9.2-2.992.038-.548.076-1.119.109-1.71.008-.14.017-.284.025-.426l.064.046.153-.058.147.072.141-.083.157.047.125-.1.162.021.108-.122.164,0,.091-.136.162-.022.075-.145.159-.038.06-.151.155-.052.048-.156.15-.064.036-.159.145-.075.024-.161.142-.116h-.184l-.121-.109-.159.034-.128-.1-.156.046-.136-.09-.152.059-.144-.077-.145.074-.151-.061-.135.09-.157-.041-.122.107-.162-.02-.105.123-.163,0-.08.128c0-.041,0-.081.005-.122.023-.63.029-1.281.027-1.948s-.014-1.348-.037-2.042c-.025-1.387-.068-2.816-.021-4.266q.008-.272.016-.545t.011-.547q.014-.548.037-1.1t.056-1.1q.035-.552.07-1.105c.065-1.482.161-2.946.154-4.4q-.011-1.094-.023-2.168c0-.358-.012-.713-.028-1.064s-.027-.7-.041-1.048c-.008-.172-.013-.343-.02-.513.024-.669.069-1.409.147-2.146A14.423,14.423,0,0,1,239.487-259.041Zm-2.57,2.4c-.1-.031-.212-.066-.322-.1l-.167-.046-.17-.041c-.057-.013-.113-.028-.17-.04l-.17-.035c-.112-.025-.224-.042-.332-.06s-.213-.032-.313-.045l-.146-.019-.137-.012c-.088-.007-.168-.015-.24-.019l-.185-.007-.162-.006.162-.011.186-.012c.072,0,.153,0,.242-.005l.138,0,.148,0c.1,0,.209,0,.32.013s.226.013.342.027l.176.018c.059.006.118.015.177.023l.177.024.175.029c.116.018.229.042.339.063l.018,0c.006.094.012.189.017.284Zm.819,19.6c-.048-.065-.1-.133-.149-.2l-.079-.1-.082-.1c-.028-.033-.055-.067-.083-.1l-.086-.1c-.056-.065-.115-.124-.171-.183s-.113-.114-.166-.166l-.078-.076-.076-.068c-.049-.043-.093-.084-.134-.118l-.107-.086-.094-.075.1.065.116.075c.044.03.093.066.146.1l.084.06.087.068c.059.047.123.1.185.15s.129.108.192.168l.1.089c.032.03.063.061.095.092l.094.093.091.095c.061.062.117.127.173.188l.007.007c-.009.087-.017.175-.027.262l0,.038C237.824-236.912,237.781-236.974,237.736-237.038Zm.794,5.825c.042-.015.084-.031.126-.044l.125-.041c.082-.028.165-.05.245-.073s.157-.041.231-.06l.107-.026.1-.02.176-.034.137-.02.119-.018-.117.03-.134.034c-.051.014-.108.033-.171.052l-.1.03-.1.036c-.07.025-.145.05-.22.082s-.154.06-.232.1l-.118.052c-.04.018-.078.037-.117.056l-.117.056-.009,0c0-.057,0-.115.008-.171Z" transform="translate(-233 268)" fill="none"/>
    </clipPath>
    <clipPath id="clip-path-27">
      <path id="Path_390" data-name="Path 390" d="M121.4-287.975l.139-.259c.047-.085.079-.175.118-.261a4.884,4.884,0,0,0,.19-.509c.03-.086.052-.17.073-.253l3.3-.286c.554-.057,1.089-.089,1.6-.132s.992-.087,1.444-.126c.9-.081,1.7-.137,2.355-.2,1.3-.121,2.069-.222,2.069-.222v-.136s-.768-.088-2.074-.187c-.327-.027-.711-.05-1.106-.076s-.82-.058-1.276-.066c-.912-.03-1.941-.059-3.065-.062s-2.342.032-3.623.1l-.974.051-.992.062-2.044.145-.912.065.013-.113.145-.144-.006-.159.128-.157-.032-.147.108-.166-.057-.133.087-.171-.08-.116.066-.173-.1-.1.047-.172-.114-.084.029-.17-.127-.069.014-.166-.136-.056v-.162l-.143-.045-.04-.165-.092.194-.167.115-.048.173-.162.124-.035.171-.156.133-.021.169-.148.142-.005.164-.138.151.013.157-.125.16.035.147-.107.167.059.132-.084.173.085.113-.057.173-2.012.113-2.21.123-2.227.156c-1.487.078-2.977.147-4.441.117-.732-.018-1.458-.048-2.174-.1-.358-.022-.713-.056-1.066-.1s-.7-.076-1.048-.121l-1.03-.129-1.01-.137c-.666-.086-1.319-.162-1.959-.219-.862-.083-1.7-.123-2.493-.151l.161-.056.056-.208.2-.1.031-.213.185-.116.011-.215.174-.131-.008-.215.163-.145-.024-.214.151-.156-.04-.211.129-.205-.233.08-.2-.084-.187.111-.206-.071-.178.124-.211-.054-.166.139-.216-.035-.151.154-.218-.011-.132.17-.218.015-.108.186-.214.045-.08.2-.2.075-.049.209-.191.1-.017.214-.174.13.014.214-.154.152.015.075c-.675,0-1.309.018-1.893.03-.457.008-.881.037-1.274.06s-.754.05-1.08.078c-1.3.1-2.051.2-2.051.2v.136s.744.115,2.046.238c.326.034.686.064,1.079.1s.818.058,1.269.1c.9.081,1.919.142,3.028.22.555.041,1.133.083,1.731.118l.913.057.1,0a6.152,6.152,0,0,1-1.457.48,13.717,13.717,0,0,1-1.718.252c-.237.021-.435.033-.574.04l-.218.01.218.007c.139,0,.338.008.577.006a13.86,13.86,0,0,0,1.752-.116,5.84,5.84,0,0,0,1.728-.456,1.679,1.679,0,0,0,.308-.193l.233.012c.637.027,1.3.037,1.972.039s1.364,0,2.067-.023c1.4-.015,2.851-.048,4.319.008l.552.02.553.014q.554.017,1.111.043l1.116.063,1.119.076c1.5.074,2.981.177,4.455.18l2.195-.008c.362,0,.721-.007,1.078-.02l1.062-.033.223-.007a2.356,2.356,0,0,0,.222.275l.15.165.176.16a4.291,4.291,0,0,0,.4.314,4.314,4.314,0,0,0,.473.265,4.285,4.285,0,0,0,.515.207,4.26,4.26,0,0,0,.537.122,2.427,2.427,0,0,0,.337.038l-.015.024-.166.221a2.434,2.434,0,0,1-.18.2l-.091.1c-.032.031-.066.059-.1.089-.067.057-.129.119-.2.169l-.2.144a1.813,1.813,0,0,1-.2.119,1.459,1.459,0,0,1-.2.1,2.427,2.427,0,0,1-.37.13,1.964,1.964,0,0,1-.3.065l-.266.032.269,0a2,2,0,0,0,.309-.033,2.519,2.519,0,0,0,.395-.093,1.56,1.56,0,0,0,.218-.081,1.972,1.972,0,0,0,.228-.1l.231-.128c.078-.046.15-.1.228-.156.038-.028.078-.054.116-.083l.108-.094a2.7,2.7,0,0,0,.216-.2l.2-.217c.055-.066.108-.135.161-.2a1.87,1.87,0,0,0,.282-.021l.223-.029.2-.046a2.469,2.469,0,0,0,.349-.1l.143-.048.117-.052.22-.1-.232.066-.121.035-.147.026a2.418,2.418,0,0,1-.351.048l-.2.016-.215,0a1.151,1.151,0,0,1-.118,0l.042-.065C121.291-287.806,121.353-287.886,121.4-287.975ZM91.8-290.808l.134-.113.138-.11c.046-.036.092-.074.139-.109l.141-.1c.092-.07.187-.133.278-.2s.181-.119.267-.173l.125-.078.119-.068c.077-.043.146-.084.209-.118l.165-.084.143-.073-.135.087-.155.1c-.059.04-.123.087-.195.138l-.111.079-.115.089c-.079.062-.162.125-.244.2s-.169.141-.253.219l-.127.115c-.042.039-.083.08-.125.12l-.123.121-.038.039-.328,0C91.744-290.757,91.773-290.783,91.8-290.808Zm24.249.466.034-.137c.011-.046.023-.092.033-.137l.029-.135c.021-.09.035-.178.051-.263s.027-.167.038-.244l.016-.113.01-.1c.006-.067.013-.129.017-.183s0-.1.006-.139c0-.077.006-.121.006-.121l.008.117c0,.037.006.082.009.134s0,.112,0,.177v.1c0,.036,0,.073,0,.11,0,.076,0,.156-.012.24s-.012.171-.023.26l-.015.135c-.005.045-.013.091-.019.137l-.021.138-.012.067-.17.012Zm5.076,1.94-.1.25c-.03.086-.079.164-.118.247-.033.067-.068.135-.107.2a3.088,3.088,0,0,1-.418-.1,3.845,3.845,0,0,1-.462-.178,3.793,3.793,0,0,1-.422-.247,3.749,3.749,0,0,1-.369-.285,3.684,3.684,0,0,1-.3-.312l-.125-.152-.029-.044.99-.059,1-.069.675-.053c0,.026-.009.051-.015.077a4.4,4.4,0,0,1-.12.48C121.182-288.571,121.163-288.484,121.129-288.4Z" transform="translate(-85 293)" fill="none"/>
    </clipPath>
    <clipPath id="clip-path-29">
      <path id="Path_261-2" data-name="Path 261" d="M68.693-286.708a1.2,1.2,0,0,1-1.019-.486c-.267-.385-.365-.495.013-.848.134-.124.287-.228.43-.34l-.012-.03-.863.2L67-288.52a15.548,15.548,0,0,1,1.687-.48c-.065.164-.1.276-.152.382a.811.811,0,0,0,.042.922,1.434,1.434,0,0,0,.376.337c.292.169.6.308.922.471-.06.031-.114.064-.169.088A2.457,2.457,0,0,1,68.693-286.708Z" transform="translate(-67 289)" fill="none"/>
    </clipPath>
    <clipPath id="clip-path-30">
      <path id="Path_260-2" data-name="Path 260" d="M57-293H175.455v115.005H57Z" transform="translate(-57 293)" fill="none"/>
    </clipPath>
    <clipPath id="clip-path-31">
      <path id="Path_255-2" data-name="Path 255" d="M73.136-286.276h0c-.173,0-.345-.028-.521-.03-.207,0-.415.011-.622,0a3.283,3.283,0,0,1-1.723-.563.655.655,0,0,1-.257-.359.554.554,0,0,1,.191-.518,1.531,1.531,0,0,1,1.222-.227.541.541,0,0,1,.33.138.279.279,0,0,1,0,.356.426.426,0,0,1-.371.138.668.668,0,0,1-.459-.338.251.251,0,0,0,.014.219.577.577,0,0,0,.155.175,1.415,1.415,0,0,0,.574.277.642.642,0,0,0,.44-.028.344.344,0,0,0,.18-.25.668.668,0,0,0-.13-.372v0c0-.06.047-.071.11-.061h0c.252.088.494.2.74.3.163.068.569.148.4.388a1.3,1.3,0,0,1-.114.124.579.579,0,0,0-.144.3.867.867,0,0,0,.015.165C73.174-286.366,73.174-286.3,73.136-286.276Z" transform="translate(-70 288)" fill="none"/>
    </clipPath>
    <clipPath id="clip-path-33">
      <path id="Path_249-2" data-name="Path 249" d="M65.527-285.088c-.027-.121-.043-.227.107-.319a7.848,7.848,0,0,0,.7-.507c.155-.121.183-.113.321.024a8.976,8.976,0,0,0,.685.614c.289.233.6.438.889.674.229.19.433.406.642.616a4.212,4.212,0,0,1,.825,1.135.878.878,0,0,1,.053.3c-.008-.082-.485-.264-.568-.3a4.9,4.9,0,0,0-.646-.232,5.286,5.286,0,0,0-1.371-.2,5.438,5.438,0,0,0-2.574.673.421.421,0,0,1-.525-.145.663.663,0,0,1-.03-.5c.08-.223.167-.444.25-.665.108-.289.214-.578.324-.867a.129.129,0,0,1,.049-.068c.2-.107.4-.211.619-.326a1.962,1.962,0,0,1-.506,1.67,5.134,5.134,0,0,0,.566-.375.739.739,0,0,0,.309-.719C65.624-284.764,65.563-284.924,65.527-285.088Zm-.91,2.111a1.836,1.836,0,0,0,.3-.113,5.637,5.637,0,0,1,1.537-.641,4.5,4.5,0,0,1,1.5-.082c.211.02.418.074.656.119a.869.869,0,0,0-.548-.451,2.625,2.625,0,0,0-.919-.185,2.179,2.179,0,0,0-1.418.49C65.383-283.539,64.991-283.277,64.617-282.977Z" transform="translate(-64 286)" fill="none"/>
    </clipPath>
    <clipPath id="clip-path-35">
      <path id="Path_252-2" data-name="Path 252" d="M77.449-282.991a5.593,5.593,0,0,1,1.458,1.037c.245.2.492.406.751.592a5.878,5.878,0,0,0,1.726.824c.221.067.272.2.15.392-.094.153-.209.295-.313.443a3.867,3.867,0,0,1-.833.793c-.286.225-.91.677-1.281.448a1.247,1.247,0,0,1-.391-.483A20.639,20.639,0,0,0,77-281.833c.5-.247.539-.675.383-1.166A.38.38,0,0,1,77.449-282.991Z" transform="translate(-77 283)" fill="none"/>
    </clipPath>
    <clipPath id="clip-path-37">
      <path id="Path_258-2" data-name="Path 258" d="M58.151-275.867a.688.688,0,0,1,.093-.056c.184-.092.37-.183.556-.272h0l.042-.016c.33-.127.659-.259.977-.413l.011,0a2.947,2.947,0,0,0,.988-.6l.081-.086h0c.425-.373.78-.814,1.175-1.226a1.468,1.468,0,0,1,1.459-.407c.463.1.91.28,1.364.424l0,.043c-.335.134-.678.252-1,.409a9.006,9.006,0,0,0-2.277,1.553,8.483,8.483,0,0,0-.838.92c-.259.331-.47.687-.707,1.032-.064.094-.132.208-.282.159a4.7,4.7,0,0,1-1.239-.547,1.458,1.458,0,0,1-.535-.517v0a.34.34,0,0,1,.006-.23.424.424,0,0,1,.127-.159Z" transform="translate(-58 279)" fill="none"/>
    </clipPath>
    <clipPath id="clip-path-39">
      <path id="Path_264-2" data-name="Path 264" d="M61.556-290.7a.211.211,0,0,1,.071-.023c.213-.022.426-.034.638-.063.192-.026.382-.065.571-.106.132-.029.262-.069.41-.109a.626.626,0,0,1-.011.1,15.948,15.948,0,0,0-.566,1.737.763.763,0,0,0,.007.476.548.548,0,0,0,.507.282c.2,0,.369-.137.562-.132a.622.622,0,0,1,.467.322c.128.214.174.468.281.694a1.4,1.4,0,0,0,.673.659,1.611,1.611,0,0,0,.975.062.635.635,0,0,1,.421.1c.511.367-.145.633-.435.743a2.294,2.294,0,0,1-1.529,0,4.192,4.192,0,0,1-1.68-1.186c-.472-.509-.877-1.077-1.339-1.595a3.048,3.048,0,0,1-.475-.615A1.018,1.018,0,0,1,61.556-290.7Z" transform="translate(-61 291)" fill="none"/>
    </clipPath>
    <clipPath id="clip-path-41">
      <path id="Path_267-2" data-name="Path 267" d="M61.993-277.015a7.348,7.348,0,0,0,1.2-.362,4.544,4.544,0,0,0,.568-.278,3.192,3.192,0,0,0,.466-.372c.029-.025.089-.051.044-.083a1.932,1.932,0,0,0-.347.148q-.182.074-.367.14-.37.134-.749.239a12.088,12.088,0,0,1-1.478.3.915.915,0,0,0-.352.067.286.286,0,0,1,.009-.048l0,0a7.278,7.278,0,0,1,.859-1.22,13.192,13.192,0,0,1,.972-1.074,13.463,13.463,0,0,1,1.109-.982q.294-.233.6-.449c.2-.138.4-.245.6-.367a5.141,5.141,0,0,1,1.359-.554,2.993,2.993,0,0,1,3.149,1.13c.12.22.243.861-.035,1.048a.3.3,0,0,1-.118.047,14.558,14.558,0,0,0-5.538,2.621c-.209.119-.423.231-.643.332a5.2,5.2,0,0,1-1.471.446,3.165,3.165,0,0,1-1.449-.09.771.771,0,0,1-.389-.244,6.768,6.768,0,0,1,.986-.195C61.322-276.882,61.659-276.941,61.993-277.015Z" transform="translate(-60 282)" fill="none"/>
    </clipPath>
    <clipPath id="clip-path-43">
      <path id="Path_270-2" data-name="Path 270" d="M72.312-284.62a5.432,5.432,0,0,1,.751.031c.367.087.673.3,1.051.358a1.927,1.927,0,0,0,1.284-.2c.345-.2.684-.415,1.023-.625a.88.88,0,0,0,.117-.12,2.684,2.684,0,0,0-.37.069c-.312.109-.614.253-.932.336a2.277,2.277,0,0,1-.608.009c.02-.1.08-.139.152-.212a1.724,1.724,0,0,0,.221-.277,1.7,1.7,0,0,0,.25-.656,1.693,1.693,0,0,0-.054-.743,7.619,7.619,0,0,0-.323-.716c-.077-.185-.156-.37-.216-.56a1.274,1.274,0,0,1,.157-.958c.027-.056.06-.108.092-.166a4.572,4.572,0,0,0,.295.749c.136.243.3.471.451.7a2.869,2.869,0,0,1,.538,1.248c.019.179.055.383.28.4a1.96,1.96,0,0,0,.118-.593c0-.008,0-.016,0-.024.052-.482-.381-.862-.631-1.226a5.921,5.921,0,0,1-.693-1.31q-.036-.1-.067-.2a6.341,6.341,0,0,1-.2-.837c-.025-.144-.047-.289-.067-.434a1.418,1.418,0,0,1-.049-.423c.041.008.072.086.088.123.108.241.2.491.323.724.281.526.566,1.051.851,1.575s.646.971.973,1.457a3.15,3.15,0,0,1,.631,1.661,1.458,1.458,0,0,1-.906,1.423,10.694,10.694,0,0,1-2.5.493c-.857.059-2.124.043-2.347-1C71.991-284.593,72.131-284.613,72.312-284.62Z" transform="translate(-72 291)" fill="none"/>
    </clipPath>
    <clipPath id="clip-path-45">
      <path id="Path_273-2" data-name="Path 273" d="M70.084-280.981c.519-.3,1.054-.574,1.59-.841a1.628,1.628,0,0,1,.567-.173.819.819,0,0,1,.53.118,1.327,1.327,0,0,1,.463.675,3.576,3.576,0,0,1,.215,1.345c-.01.327-.044,1.041-.3,1.267-.113.1-.148,0-.266-.1a7.744,7.744,0,0,0-1.455-.828C71.222-279.621,69.62-280.711,70.084-280.981Z" transform="translate(-70 282)" fill="none"/>
    </clipPath>
    <clipPath id="clip-path-47">
      <path id="Path_279-2" data-name="Path 279" d="M70.15-287.917a1.559,1.559,0,0,1,.181.214,3.994,3.994,0,0,0,.758.712,6.8,6.8,0,0,0,.844.406,3.8,3.8,0,0,1,1.546,1.219,3.638,3.638,0,0,1,.495,1.327,1.42,1.42,0,0,1,0,.727c-.074.219-.6.679-.828.4-.148-.18.1-.542.116-.735a2.092,2.092,0,0,0-.244-1.114,4.541,4.541,0,0,0-1.218-1.36c-.359-.293-.734-.57-1.074-.884-.294-.272-.679-.576-.732-.994,0,.022.119.061.14.076Z" transform="translate(-70 288)" fill="none"/>
    </clipPath>
    <clipPath id="clip-path-49">
      <path id="Path_261-3" data-name="Path 261" d="M68.182-288.992a1.2,1.2,0,0,1,1.019.486c.267.385.365.495-.013.848-.134.124-.287.228-.43.34l.012.03.863-.2.243.306a15.55,15.55,0,0,1-1.687.48c.065-.164.1-.276.152-.382A.811.811,0,0,0,68.3-288a1.435,1.435,0,0,0-.376-.337c-.292-.169-.6-.308-.922-.471.06-.031.114-.064.169-.088A2.458,2.458,0,0,1,68.182-288.992Z" transform="translate(-67 289)" fill="none"/>
    </clipPath>
    <clipPath id="clip-path-50">
      <path id="Path_260-3" data-name="Path 260" d="M175.455-177.995H57V-293H175.455Z" transform="translate(-57 293)" fill="none"/>
    </clipPath>
    <clipPath id="clip-path-51">
      <path id="Path_255-3" data-name="Path 255" d="M70.314-288h0c.173,0,.345.028.521.03.207,0,.415-.011.622,0a3.284,3.284,0,0,1,1.723.563.655.655,0,0,1,.257.359.554.554,0,0,1-.191.518,1.531,1.531,0,0,1-1.222.227.541.541,0,0,1-.33-.138.279.279,0,0,1,0-.356.426.426,0,0,1,.371-.138.668.668,0,0,1,.459.338.251.251,0,0,0-.014-.22.577.577,0,0,0-.155-.175,1.415,1.415,0,0,0-.574-.277.642.642,0,0,0-.44.028.344.344,0,0,0-.18.25.668.668,0,0,0,.13.372v0c0,.06-.047.071-.11.061h0c-.252-.088-.494-.2-.74-.3-.163-.068-.569-.148-.4-.388a1.3,1.3,0,0,1,.114-.124.579.579,0,0,0,.144-.3.866.866,0,0,0-.015-.165C70.277-287.909,70.276-287.976,70.314-288Z" transform="translate(-70 288)" fill="none"/>
    </clipPath>
    <clipPath id="clip-path-53">
      <path id="Path_249-3" data-name="Path 249" d="M68.224-283.462c.027.121.043.227-.107.319a7.86,7.86,0,0,0-.7.507c-.155.121-.183.113-.321-.024a8.988,8.988,0,0,0-.685-.614c-.289-.233-.6-.438-.889-.674-.229-.19-.433-.406-.642-.616a4.212,4.212,0,0,1-.825-1.135A.878.878,0,0,1,64-286c.008.082.485.264.568.3a4.9,4.9,0,0,0,.646.232,5.288,5.288,0,0,0,1.371.2,5.437,5.437,0,0,0,2.574-.673.421.421,0,0,1,.525.145.663.663,0,0,1,.03.5c-.08.223-.167.444-.25.665-.108.289-.214.578-.324.866a.129.129,0,0,1-.049.068c-.2.107-.4.211-.619.326a1.962,1.962,0,0,1,.506-1.67,5.14,5.14,0,0,0-.566.375.739.739,0,0,0-.309.719C68.127-283.786,68.187-283.626,68.224-283.462Zm.91-2.111a1.844,1.844,0,0,0-.3.113,5.639,5.639,0,0,1-1.537.641,4.506,4.506,0,0,1-1.5.082c-.211-.02-.418-.074-.656-.119a.869.869,0,0,0,.548.451,2.625,2.625,0,0,0,.919.185,2.179,2.179,0,0,0,1.418-.49C68.367-285.011,68.759-285.273,69.133-285.572Z" transform="translate(-64 286)" fill="none"/>
    </clipPath>
    <clipPath id="clip-path-55">
      <path id="Path_252-3" data-name="Path 252" d="M81.151-278.409a5.592,5.592,0,0,1-1.458-1.037c-.245-.2-.492-.406-.751-.592a5.875,5.875,0,0,0-1.726-.824c-.221-.067-.272-.2-.15-.392.094-.153.209-.295.313-.443a3.865,3.865,0,0,1,.833-.793c.286-.225.91-.677,1.281-.448a1.247,1.247,0,0,1,.391.483,20.641,20.641,0,0,0,1.718,2.888c-.5.247-.539.675-.383,1.166A.382.382,0,0,1,81.151-278.409Z" transform="translate(-77 283)" fill="none"/>
    </clipPath>
    <clipPath id="clip-path-57">
      <path id="Path_258-3" data-name="Path 258" d="M64.749-277.532a.693.693,0,0,1-.093.056c-.184.092-.37.183-.556.272h0l-.042.016c-.33.127-.659.259-.977.413l-.011,0a2.948,2.948,0,0,0-.988.6l-.081.086h0c-.425.373-.78.814-1.175,1.226a1.468,1.468,0,0,1-1.459.407c-.463-.1-.91-.28-1.364-.424l0-.043c.335-.135.678-.252,1-.409a9.007,9.007,0,0,0,2.277-1.553,8.477,8.477,0,0,0,.838-.92c.259-.331.47-.687.707-1.032.064-.094.132-.208.282-.159a4.7,4.7,0,0,1,1.239.547,1.457,1.457,0,0,1,.535.517v0a.34.34,0,0,1-.006.23.425.425,0,0,1-.127.159Z" transform="translate(-58 279)" fill="none"/>
    </clipPath>
    <clipPath id="clip-path-59">
      <path id="Path_264-3" data-name="Path 264" d="M66.195-286.125a.21.21,0,0,1-.071.023c-.213.022-.426.035-.638.063-.192.026-.382.065-.571.106-.132.029-.262.069-.41.109a.624.624,0,0,1,.011-.1,15.947,15.947,0,0,0,.566-1.737.763.763,0,0,0-.007-.476.549.549,0,0,0-.507-.282c-.2,0-.369.137-.562.132a.621.621,0,0,1-.467-.322c-.128-.214-.174-.468-.281-.694a1.4,1.4,0,0,0-.673-.659,1.61,1.61,0,0,0-.975-.062.635.635,0,0,1-.421-.1c-.511-.367.145-.633.435-.743a2.294,2.294,0,0,1,1.529,0,4.193,4.193,0,0,1,1.68,1.186c.472.509.877,1.077,1.339,1.595a3.046,3.046,0,0,1,.475.615A1.018,1.018,0,0,1,66.195-286.125Z" transform="translate(-61 291)" fill="none"/>
    </clipPath>
    <clipPath id="clip-path-61">
      <path id="Path_267-3" data-name="Path 267" d="M67.783-281.235a7.352,7.352,0,0,0-1.2.362,4.552,4.552,0,0,0-.568.278,3.191,3.191,0,0,0-.466.372c-.029.025-.089.051-.044.083a1.935,1.935,0,0,0,.347-.148q.182-.074.367-.14.37-.134.749-.239a12.094,12.094,0,0,1,1.478-.3.917.917,0,0,0,.352-.067.283.283,0,0,1-.009.048l0,0a7.281,7.281,0,0,1-.859,1.22,13.209,13.209,0,0,1-.972,1.074,13.457,13.457,0,0,1-1.109.982q-.294.233-.6.449c-.2.138-.4.245-.6.367a5.139,5.139,0,0,1-1.359.554,2.993,2.993,0,0,1-3.149-1.13c-.12-.22-.243-.861.035-1.048a.3.3,0,0,1,.118-.047,14.558,14.558,0,0,0,5.538-2.621c.209-.119.423-.231.643-.332a5.2,5.2,0,0,1,1.471-.446,3.165,3.165,0,0,1,1.449.09.772.772,0,0,1,.389.244,6.751,6.751,0,0,1-.986.195C68.453-281.368,68.116-281.309,67.783-281.235Z" transform="translate(-60 282)" fill="none"/>
    </clipPath>
    <clipPath id="clip-path-63">
      <path id="Path_270-3" data-name="Path 270" d="M77.438-289.905a5.437,5.437,0,0,1-.751-.031c-.367-.087-.673-.3-1.051-.358a1.927,1.927,0,0,0-1.284.2c-.345.2-.684.415-1.023.625a.875.875,0,0,0-.117.12,2.685,2.685,0,0,0,.37-.069c.312-.109.614-.253.932-.336a2.275,2.275,0,0,1,.608-.009c-.02.1-.08.139-.152.212a1.726,1.726,0,0,0-.221.277,1.7,1.7,0,0,0-.25.656,1.693,1.693,0,0,0,.054.743,7.626,7.626,0,0,0,.323.716c.077.185.156.37.216.56a1.274,1.274,0,0,1-.157.958c-.027.056-.06.108-.092.166a4.574,4.574,0,0,0-.295-.749c-.136-.243-.3-.471-.451-.7a2.869,2.869,0,0,1-.538-1.248c-.019-.179-.055-.383-.28-.4a1.96,1.96,0,0,0-.118.593c0,.008,0,.016,0,.024-.051.482.381.863.631,1.226a5.921,5.921,0,0,1,.693,1.31q.036.1.067.2a6.34,6.34,0,0,1,.2.837c.025.144.047.289.067.434a1.417,1.417,0,0,1,.049.423c-.041-.008-.072-.086-.088-.123-.108-.241-.2-.491-.323-.724-.281-.526-.566-1.051-.851-1.575s-.646-.971-.973-1.457A3.15,3.15,0,0,1,72-289.064a1.458,1.458,0,0,1,.906-1.423,10.694,10.694,0,0,1,2.5-.493c.857-.059,2.124-.043,2.347,1C77.759-289.932,77.62-289.911,77.438-289.905Z" transform="translate(-72 291)" fill="none"/>
    </clipPath>
    <clipPath id="clip-path-65">
      <path id="Path_273-3" data-name="Path 273" d="M73.366-279.569c-.519.3-1.054.574-1.59.841a1.63,1.63,0,0,1-.567.173.82.82,0,0,1-.53-.118,1.328,1.328,0,0,1-.463-.675A3.575,3.575,0,0,1,70-280.692c.01-.327.044-1.041.3-1.267.113-.1.148,0,.266.1a7.747,7.747,0,0,0,1.455.828C72.228-280.929,73.831-279.839,73.366-279.569Z" transform="translate(-70 282)" fill="none"/>
    </clipPath>
    <clipPath id="clip-path-67">
      <path id="Path_279-3" data-name="Path 279" d="M73.875-282.908a1.56,1.56,0,0,1-.181-.214,3.992,3.992,0,0,0-.758-.712,6.8,6.8,0,0,0-.844-.406,3.8,3.8,0,0,1-1.546-1.219,3.638,3.638,0,0,1-.495-1.327,1.42,1.42,0,0,1,0-.727c.074-.219.6-.679.828-.4.148.18-.1.542-.116.735A2.092,2.092,0,0,0,71-286.063a4.542,4.542,0,0,0,1.218,1.36c.359.293.734.57,1.074.884.294.272.679.576.732.994,0-.022-.119-.061-.14-.076Z" transform="translate(-70 288)" fill="none"/>
    </clipPath>
    <clipPath id="clip-path-69">
      <path id="Path_261-4" data-name="Path 261" d="M68.182-286.708a1.2,1.2,0,0,0,1.019-.486c.267-.385.365-.495-.013-.848-.134-.124-.287-.228-.43-.34l.012-.03.863.2.243-.306a15.55,15.55,0,0,0-1.687-.48c.065.164.1.276.152.382a.811.811,0,0,1-.042.922,1.434,1.434,0,0,1-.376.337c-.292.169-.6.308-.922.471.06.031.114.064.169.088A2.457,2.457,0,0,0,68.182-286.708Z" transform="translate(-67 289)" fill="none"/>
    </clipPath>
    <clipPath id="clip-path-70">
      <path id="Path_260-4" data-name="Path 260" d="M175.455-293H57v115.005H175.455Z" transform="translate(-57 293)" fill="none"/>
    </clipPath>
    <clipPath id="clip-path-71">
      <path id="Path_255-4" data-name="Path 255" d="M70.314-286.276h0c.173,0,.345-.028.521-.03.207,0,.415.011.622,0a3.283,3.283,0,0,0,1.723-.563.655.655,0,0,0,.257-.359.554.554,0,0,0-.191-.518,1.531,1.531,0,0,0-1.222-.227.541.541,0,0,0-.33.138.279.279,0,0,0,0,.356.426.426,0,0,0,.371.138.668.668,0,0,0,.459-.338.251.251,0,0,1-.014.219.577.577,0,0,1-.155.175,1.415,1.415,0,0,1-.574.277.642.642,0,0,1-.44-.028.344.344,0,0,1-.18-.25.668.668,0,0,1,.13-.372v0c0-.06-.047-.071-.11-.061h0c-.252.088-.494.2-.74.3-.163.068-.569.148-.4.388a1.307,1.307,0,0,0,.114.124.579.579,0,0,1,.144.3.866.866,0,0,1-.015.165C70.277-286.366,70.276-286.3,70.314-286.276Z" transform="translate(-70 288)" fill="none"/>
    </clipPath>
    <clipPath id="clip-path-73">
      <path id="Path_249-4" data-name="Path 249" d="M68.224-285.088c.027-.121.043-.227-.107-.319a7.847,7.847,0,0,1-.7-.507c-.155-.121-.183-.113-.321.024a8.981,8.981,0,0,1-.685.614c-.289.233-.6.438-.889.674-.229.19-.433.406-.642.616a4.212,4.212,0,0,0-.825,1.135.878.878,0,0,0-.053.3c.008-.082.485-.264.568-.3a4.9,4.9,0,0,1,.646-.232,5.285,5.285,0,0,1,1.371-.2,5.438,5.438,0,0,1,2.574.673.421.421,0,0,0,.525-.145.663.663,0,0,0,.03-.5c-.08-.223-.167-.444-.25-.665-.108-.289-.214-.578-.324-.867a.129.129,0,0,0-.049-.068c-.2-.107-.4-.211-.619-.326a1.962,1.962,0,0,0,.506,1.67,5.135,5.135,0,0,1-.566-.375.739.739,0,0,1-.309-.719C68.127-284.764,68.187-284.924,68.224-285.088Zm.91,2.111a1.836,1.836,0,0,1-.3-.113,5.637,5.637,0,0,0-1.537-.641,4.5,4.5,0,0,0-1.5-.082c-.211.02-.418.074-.656.119a.869.869,0,0,1,.548-.451,2.625,2.625,0,0,1,.919-.185,2.18,2.18,0,0,1,1.418.49C68.367-283.539,68.759-283.277,69.133-282.977Z" transform="translate(-64 286)" fill="none"/>
    </clipPath>
    <clipPath id="clip-path-75">
      <path id="Path_252-4" data-name="Path 252" d="M81.151-282.991a5.593,5.593,0,0,0-1.458,1.037c-.245.2-.492.406-.751.592a5.878,5.878,0,0,1-1.726.824c-.221.067-.272.2-.15.392.094.153.209.295.313.443a3.867,3.867,0,0,0,.833.793c.286.225.91.677,1.281.448a1.247,1.247,0,0,0,.391-.483,20.639,20.639,0,0,1,1.718-2.888c-.5-.247-.539-.675-.383-1.166A.38.38,0,0,0,81.151-282.991Z" transform="translate(-77 283)" fill="none"/>
    </clipPath>
    <clipPath id="clip-path-77">
      <path id="Path_258-4" data-name="Path 258" d="M64.749-275.867a.687.687,0,0,0-.093-.056c-.184-.092-.37-.183-.556-.272h0l-.042-.016c-.33-.127-.659-.259-.977-.413l-.011,0a2.947,2.947,0,0,1-.988-.6L62-277.318h0c-.425-.373-.78-.814-1.175-1.226a1.468,1.468,0,0,0-1.459-.407c-.463.1-.91.28-1.364.424l0,.043c.335.134.678.252,1,.409a9.006,9.006,0,0,1,2.277,1.553,8.482,8.482,0,0,1,.838.92c.259.331.47.687.707,1.032.064.094.132.208.282.159a4.7,4.7,0,0,0,1.238-.547,1.458,1.458,0,0,0,.535-.517v0a.339.339,0,0,0-.006-.23.424.424,0,0,0-.127-.159Z" transform="translate(-58 279)" fill="none"/>
    </clipPath>
    <clipPath id="clip-path-79">
      <path id="Path_264-4" data-name="Path 264" d="M66.195-290.7a.211.211,0,0,0-.071-.023c-.213-.022-.426-.034-.638-.063-.192-.026-.382-.065-.571-.106-.132-.029-.262-.069-.41-.109a.624.624,0,0,0,.011.1,15.948,15.948,0,0,1,.566,1.737.763.763,0,0,1-.007.476.548.548,0,0,1-.507.282c-.2,0-.369-.137-.562-.132a.622.622,0,0,0-.467.322c-.128.214-.174.468-.281.694a1.4,1.4,0,0,1-.673.659,1.61,1.61,0,0,1-.975.062.635.635,0,0,0-.421.1c-.511.367.145.633.435.743a2.294,2.294,0,0,0,1.529,0,4.192,4.192,0,0,0,1.68-1.186c.472-.509.877-1.077,1.339-1.595a3.048,3.048,0,0,0,.475-.615A1.018,1.018,0,0,0,66.195-290.7Z" transform="translate(-61 291)" fill="none"/>
    </clipPath>
    <clipPath id="clip-path-81">
      <path id="Path_267-4" data-name="Path 267" d="M67.783-277.015a7.349,7.349,0,0,1-1.2-.362,4.543,4.543,0,0,1-.568-.278,3.192,3.192,0,0,1-.466-.372c-.029-.025-.089-.051-.044-.083a1.933,1.933,0,0,1,.347.148q.182.074.367.14.37.134.749.239a12.088,12.088,0,0,0,1.478.3.915.915,0,0,1,.352.067.287.287,0,0,0-.009-.048l0,0a7.279,7.279,0,0,0-.859-1.22,13.2,13.2,0,0,0-.972-1.074,13.463,13.463,0,0,0-1.109-.982q-.294-.233-.6-.449c-.2-.138-.4-.245-.6-.367a5.141,5.141,0,0,0-1.359-.554,2.993,2.993,0,0,0-3.149,1.13c-.12.22-.243.861.035,1.048a.3.3,0,0,0,.118.047,14.558,14.558,0,0,1,5.538,2.621c.209.119.423.231.643.332a5.2,5.2,0,0,0,1.471.446,3.165,3.165,0,0,0,1.449-.09.771.771,0,0,0,.389-.244,6.768,6.768,0,0,0-.986-.195C68.453-276.882,68.116-276.941,67.783-277.015Z" transform="translate(-60 282)" fill="none"/>
    </clipPath>
    <clipPath id="clip-path-83">
      <path id="Path_270-4" data-name="Path 270" d="M77.438-284.62a5.432,5.432,0,0,0-.751.031c-.367.087-.673.3-1.051.358a1.927,1.927,0,0,1-1.284-.2c-.345-.2-.684-.415-1.023-.625a.88.88,0,0,1-.117-.12,2.685,2.685,0,0,1,.37.069c.312.109.614.253.932.336a2.277,2.277,0,0,0,.608.009c-.02-.1-.08-.139-.152-.212a1.725,1.725,0,0,1-.221-.277,1.7,1.7,0,0,1-.25-.656,1.693,1.693,0,0,1,.054-.743,7.615,7.615,0,0,1,.323-.716c.077-.185.156-.37.216-.56a1.274,1.274,0,0,0-.157-.958c-.027-.056-.06-.108-.092-.166a4.572,4.572,0,0,1-.295.749c-.136.243-.3.471-.451.7a2.869,2.869,0,0,0-.538,1.248c-.019.179-.055.383-.28.4a1.96,1.96,0,0,1-.118-.593c0-.008,0-.016,0-.024-.051-.482.381-.862.631-1.226a5.922,5.922,0,0,0,.693-1.31q.036-.1.067-.2a6.34,6.34,0,0,0,.2-.837c.025-.144.047-.289.067-.434a1.417,1.417,0,0,0,.049-.423c-.041.008-.072.086-.088.123-.108.241-.2.491-.323.724-.281.526-.566,1.051-.851,1.575s-.646.971-.973,1.457A3.15,3.15,0,0,0,72-285.46a1.458,1.458,0,0,0,.906,1.423,10.694,10.694,0,0,0,2.5.493c.857.059,2.124.043,2.347-1C77.759-284.593,77.62-284.613,77.438-284.62Z" transform="translate(-72 291)" fill="none"/>
    </clipPath>
    <clipPath id="clip-path-85">
      <path id="Path_273-4" data-name="Path 273" d="M73.366-280.981c-.519-.3-1.054-.574-1.59-.841a1.628,1.628,0,0,0-.567-.173.819.819,0,0,0-.53.118,1.327,1.327,0,0,0-.463.675A3.575,3.575,0,0,0,70-279.858c.01.327.044,1.041.3,1.267.113.1.148,0,.266-.1a7.745,7.745,0,0,1,1.455-.828C72.228-279.621,73.831-280.711,73.366-280.981Z" transform="translate(-70 282)" fill="none"/>
    </clipPath>
    <clipPath id="clip-path-87">
      <path id="Path_279-4" data-name="Path 279" d="M73.875-287.917a1.56,1.56,0,0,0-.181.214,4,4,0,0,1-.758.712,6.8,6.8,0,0,1-.844.406,3.8,3.8,0,0,0-1.546,1.219,3.638,3.638,0,0,0-.495,1.327,1.42,1.42,0,0,0,0,.727c.074.219.6.679.828.4.148-.18-.1-.542-.116-.735A2.092,2.092,0,0,1,71-284.761a4.541,4.541,0,0,1,1.218-1.36c.359-.293.734-.57,1.074-.884.294-.272.679-.576.732-.994,0,.022-.119.061-.14.076Z" transform="translate(-70 288)" fill="none"/>
    </clipPath>
  </defs>
  <g id="Note" transform="translate(15.113 4.991)">
    <g transform="matrix(1, 0, 0, 1, -15.11, -4.99)" filter="url(#Rectangle_3)">
      <rect id="Rectangle_3-2" data-name="Rectangle 3" width="96" height="106" rx="7" transform="translate(15 5)" fill="#48a9c6"/>
    </g>
    <g id="Group_27" data-name="Group 27" transform="translate(4.441 7.538)" opacity="0.152">
      <g id="Group_104" data-name="Group 104" transform="translate(0 5.236)">
        <g id="Group_16" data-name="Group 16" transform="translate(5.175 1.15)" clip-path="url(#clip-path)">
          <g id="Group_15" data-name="Group 15" transform="translate(-5.75 -2.3)" clip-path="url(#clip-path-2)">
            <path id="Path_259" data-name="Path 259" d="M62-294h8.625v8.05H62Z" transform="translate(-59.125 293.425)"/>
          </g>
        </g>
        <g id="Group_12" data-name="Group 12" transform="translate(6.9 1.725)" clip-path="url(#clip-path-3)">
          <g id="Group_11" data-name="Group 11" transform="translate(-7.475 -2.875)" clip-path="url(#clip-path-2)">
            <path id="Path_253" data-name="Path 253" d="M65-293h9.2v7.475H65Z" transform="translate(-60.4 293)"/>
          </g>
        </g>
        <g id="Group_8" data-name="Group 8" transform="translate(3.45 2.875)" clip-path="url(#clip-path-5)">
          <g id="Group_7" data-name="Group 7" transform="translate(-4.025 -4.025)" clip-path="url(#clip-path-2)">
            <path id="Path_247" data-name="Path 247" d="M59-291H70.5v9.2H59Z" transform="translate(-57.85 292.15)"/>
          </g>
        </g>
        <g id="Group_10" data-name="Group 10" transform="translate(10.925 4.6)" clip-path="url(#clip-path-7)">
          <g id="Group_9" data-name="Group 9" transform="translate(-11.501 -5.75)" clip-path="url(#clip-path-2)">
            <path id="Path_250" data-name="Path 250" d="M72-288H82.35v10.35H72Z" transform="translate(-63.375 290.875)"/>
          </g>
        </g>
        <g id="Group_14" data-name="Group 14" transform="translate(0 6.9)" clip-path="url(#clip-path-9)">
          <g id="Group_13" data-name="Group 13" transform="translate(-0.575 -8.05)" clip-path="url(#clip-path-2)">
            <path id="Path_256" data-name="Path 256" d="M53-284H65.651v10.35H53Z" transform="translate(-55.3 289.175)"/>
          </g>
        </g>
        <g id="Group_18" data-name="Group 18" transform="translate(1.725)" clip-path="url(#clip-path-11)">
          <g id="Group_17" data-name="Group 17" transform="translate(-2.3 -1.15)" clip-path="url(#clip-path-2)">
            <path id="Path_262" data-name="Path 262" d="M56-296H67.5v10.926H56Z" transform="translate(-56.575 294.275)"/>
          </g>
        </g>
        <g id="Group_20" data-name="Group 20" transform="translate(1.15 5.175)" clip-path="url(#clip-path-13)">
          <g id="Group_19" data-name="Group 19" transform="translate(-1.725 -6.325)" clip-path="url(#clip-path-2)">
            <path id="Path_265" data-name="Path 265" d="M55-287H70.526v11.5H55Z" transform="translate(-56.15 290.45)"/>
          </g>
        </g>
        <g id="Group_22" data-name="Group 22" transform="translate(8.05 0)" clip-path="url(#clip-path-15)">
          <g id="Group_21" data-name="Group 21" transform="translate(-8.625 -1.15)" clip-path="url(#clip-path-2)">
            <path id="Path_268" data-name="Path 268" d="M67-296H78.5v13.226H67Z" transform="translate(-61.25 294.275)"/>
          </g>
        </g>
        <g id="Group_24" data-name="Group 24" transform="translate(6.9 5.175)" clip-path="url(#clip-path-17)">
          <g id="Group_23" data-name="Group 23" transform="translate(-7.475 -6.325)" clip-path="url(#clip-path-2)">
            <path id="Path_271" data-name="Path 271" d="M65-287h9.2v9.2H65Z" transform="translate(-60.4 290.45)"/>
          </g>
        </g>
        <g id="Group_28" data-name="Group 28" transform="translate(6.9 1.725)" clip-path="url(#clip-path-19)">
          <g id="Group_27-2" data-name="Group 27" transform="translate(-7.475 -2.875)" clip-path="url(#clip-path-2)">
            <path id="Path_277" data-name="Path 277" d="M65-293h9.775v10.925H65Z" transform="translate(-60.4 293)"/>
          </g>
        </g>
      </g>
      <g id="Group_96" data-name="Group 96" transform="translate(20.211 85.135)" clip-path="url(#clip-path-21)">
        <g id="Group_95" data-name="Group 95" transform="translate(-8.842 -54.947)" clip-path="url(#clip-path-22)">
          <path id="Path_379" data-name="Path 379" d="M80-124h50.842v11.368H80Z" transform="translate(-72.737 177.369)"/>
        </g>
      </g>
      <g id="Group_98" data-name="Group 98" transform="translate(0 22.673)" clip-path="url(#clip-path-23)">
        <g id="Group_97" data-name="Group 97" transform="translate(-1.263 -7.579)" clip-path="url(#clip-path-22)">
          <path id="Path_382" data-name="Path 382" d="M56-274H67.368v50.526H56Z" transform="translate(-56.316 280)"/>
        </g>
      </g>
      <g id="Group_100" data-name="Group 100" transform="translate(79.579 22.989)" clip-path="url(#clip-path-25)">
        <g id="Group_99" data-name="Group 99" transform="translate(-55.579 -7.895)" clip-path="url(#clip-path-22)">
          <path id="Path_385" data-name="Path 385" d="M228-273h11.053v50.211H228Z" transform="translate(-174 279.316)"/>
        </g>
      </g>
      <g id="Group_102" data-name="Group 102" transform="translate(20.211 0)" clip-path="url(#clip-path-27)">
        <g id="Group_101" data-name="Group 101" transform="translate(-8.842)" clip-path="url(#clip-path-22)">
          <path id="Path_388" data-name="Path 388" d="M80-298h50.842v10.105H80Z" transform="translate(-72.737 296.421)"/>
        </g>
      </g>
      <g id="Group_105" data-name="Group 105" transform="translate(0 73.767)">
        <g id="Group_16-2" data-name="Group 16" transform="translate(5.175 8.05)" clip-path="url(#clip-path-29)">
          <g id="Group_15-2" data-name="Group 15" transform="translate(-5.75 -110.405)" clip-path="url(#clip-path-30)">
            <path id="Path_259-2" data-name="Path 259" d="M62-285.95h8.625V-294H62Z" transform="translate(-59.125 401.53)"/>
          </g>
        </g>
        <g id="Group_12-2" data-name="Group 12" transform="translate(6.9 8.05)" clip-path="url(#clip-path-31)">
          <g id="Group_11-2" data-name="Group 11" transform="translate(-7.475 -110.405)" clip-path="url(#clip-path-30)">
            <path id="Path_253-2" data-name="Path 253" d="M65-285.525h9.2V-293H65Z" transform="translate(-60.4 400.53)"/>
          </g>
        </g>
        <g id="Group_8-2" data-name="Group 8" transform="translate(3.45 5.175)" clip-path="url(#clip-path-33)">
          <g id="Group_7-2" data-name="Group 7" transform="translate(-4.025 -107.53)" clip-path="url(#clip-path-30)">
            <path id="Path_247-2" data-name="Path 247" d="M59-281.8H70.5V-291H59Z" transform="translate(-57.85 395.655)"/>
          </g>
        </g>
        <g id="Group_10-2" data-name="Group 10" transform="translate(10.925 2.3)" clip-path="url(#clip-path-35)">
          <g id="Group_9-2" data-name="Group 9" transform="translate(-11.501 -104.655)" clip-path="url(#clip-path-30)">
            <path id="Path_250-2" data-name="Path 250" d="M72-277.649H82.35V-288H72Z" transform="translate(-63.375 389.78)"/>
          </g>
        </g>
        <g id="Group_14-2" data-name="Group 14" clip-path="url(#clip-path-37)">
          <g id="Group_13-2" data-name="Group 13" transform="translate(-0.575 -102.355)" clip-path="url(#clip-path-30)">
            <path id="Path_256-2" data-name="Path 256" d="M53-273.65H65.651V-284H53Z" transform="translate(-55.3 383.479)"/>
          </g>
        </g>
        <g id="Group_18-2" data-name="Group 18" transform="translate(1.725 6.325)" clip-path="url(#clip-path-39)">
          <g id="Group_17-2" data-name="Group 17" transform="translate(-2.3 -108.68)" clip-path="url(#clip-path-30)">
            <path id="Path_262-2" data-name="Path 262" d="M56-285.074H67.5V-296H56Z" transform="translate(-56.575 401.805)"/>
          </g>
        </g>
        <g id="Group_20-2" data-name="Group 20" transform="translate(1.15 0.575)" clip-path="url(#clip-path-41)">
          <g id="Group_19-2" data-name="Group 19" transform="translate(-1.725 -102.93)" clip-path="url(#clip-path-30)">
            <path id="Path_265-2" data-name="Path 265" d="M55-275.5H70.526V-287H55Z" transform="translate(-56.15 387.055)"/>
          </g>
        </g>
        <g id="Group_22-2" data-name="Group 22" transform="translate(8.05 4.025)" clip-path="url(#clip-path-43)">
          <g id="Group_21-2" data-name="Group 21" transform="translate(-8.625 -106.38)" clip-path="url(#clip-path-30)">
            <path id="Path_268-2" data-name="Path 268" d="M67-282.774H78.5V-296H67Z" transform="translate(-61.25 399.505)"/>
          </g>
        </g>
        <g id="Group_24-2" data-name="Group 24" transform="translate(6.9 2.875)" clip-path="url(#clip-path-45)">
          <g id="Group_23-2" data-name="Group 23" transform="translate(-7.475 -105.23)" clip-path="url(#clip-path-30)">
            <path id="Path_271-2" data-name="Path 271" d="M65-277.8h9.2V-287H65Z" transform="translate(-60.4 389.355)"/>
          </g>
        </g>
        <g id="Group_28-2" data-name="Group 28" transform="translate(6.9 4.6)" clip-path="url(#clip-path-47)">
          <g id="Group_27-3" data-name="Group 27" transform="translate(-7.475 -106.955)" clip-path="url(#clip-path-30)">
            <path id="Path_277-2" data-name="Path 277" d="M65-282.074h9.775V-293H65Z" transform="translate(-60.4 397.08)"/>
          </g>
        </g>
      </g>
      <g id="Group_106" data-name="Group 106" transform="translate(69.474 5.236)">
        <g id="Group_16-3" data-name="Group 16" transform="translate(7.475 1.15)" clip-path="url(#clip-path-49)">
          <g id="Group_15-3" data-name="Group 15" transform="translate(-109.83 -2.3)" clip-path="url(#clip-path-50)">
            <path id="Path_259-3" data-name="Path 259" d="M70.625-294H62v8.05h8.625Z" transform="translate(44.955 293.425)"/>
          </g>
        </g>
        <g id="Group_12-3" data-name="Group 12" transform="translate(5.175 1.725)" clip-path="url(#clip-path-51)">
          <g id="Group_11-3" data-name="Group 11" transform="translate(-107.53 -2.875)" clip-path="url(#clip-path-50)">
            <path id="Path_253-3" data-name="Path 253" d="M74.2-293H65v7.475h9.2Z" transform="translate(39.655 293)"/>
          </g>
        </g>
        <g id="Group_8-3" data-name="Group 8" transform="translate(6.325 2.875)" clip-path="url(#clip-path-53)">
          <g id="Group_7-3" data-name="Group 7" transform="translate(-108.68 -4.025)" clip-path="url(#clip-path-50)">
            <path id="Path_247-3" data-name="Path 247" d="M70.5-291H59v9.2H70.5Z" transform="translate(46.805 292.15)"/>
          </g>
        </g>
        <g id="Group_10-3" data-name="Group 10" transform="translate(0 4.6)" clip-path="url(#clip-path-55)">
          <g id="Group_9-3" data-name="Group 9" transform="translate(-102.355 -5.75)" clip-path="url(#clip-path-50)">
            <path id="Path_250-3" data-name="Path 250" d="M82.35-288H72v10.35H82.35Z" transform="translate(27.48 290.875)"/>
          </g>
        </g>
        <g id="Group_14-3" data-name="Group 14" transform="translate(8.625 6.9)" clip-path="url(#clip-path-57)">
          <g id="Group_13-3" data-name="Group 13" transform="translate(-110.98 -8.05)" clip-path="url(#clip-path-50)">
            <path id="Path_256-3" data-name="Path 256" d="M65.651-284H53v10.35H65.651Z" transform="translate(55.105 289.175)"/>
          </g>
        </g>
        <g id="Group_18-3" data-name="Group 18" transform="translate(8.05)" clip-path="url(#clip-path-59)">
          <g id="Group_17-3" data-name="Group 17" transform="translate(-110.405 -1.15)" clip-path="url(#clip-path-50)">
            <path id="Path_262-3" data-name="Path 262" d="M67.5-296H56v10.926H67.5Z" transform="translate(51.53 294.275)"/>
          </g>
        </g>
        <g id="Group_20-3" data-name="Group 20" transform="translate(4.6 5.175)" clip-path="url(#clip-path-61)">
          <g id="Group_19-3" data-name="Group 19" transform="translate(-106.955 -6.325)" clip-path="url(#clip-path-50)">
            <path id="Path_265-3" data-name="Path 265" d="M70.526-287H55v11.5H70.526Z" transform="translate(49.08 290.45)"/>
          </g>
        </g>
        <g id="Group_22-3" data-name="Group 22" transform="translate(1.725 0)" clip-path="url(#clip-path-63)">
          <g id="Group_21-3" data-name="Group 21" transform="translate(-104.08 -1.15)" clip-path="url(#clip-path-50)">
            <path id="Path_268-3" data-name="Path 268" d="M78.5-296H67v13.226H78.5Z" transform="translate(34.205 294.275)"/>
          </g>
        </g>
        <g id="Group_24-3" data-name="Group 24" transform="translate(5.175 5.175)" clip-path="url(#clip-path-65)">
          <g id="Group_23-3" data-name="Group 23" transform="translate(-107.53 -6.325)" clip-path="url(#clip-path-50)">
            <path id="Path_271-3" data-name="Path 271" d="M74.2-287H65v9.2h9.2Z" transform="translate(39.655 290.45)"/>
          </g>
        </g>
        <g id="Group_28-3" data-name="Group 28" transform="translate(4.6 1.725)" clip-path="url(#clip-path-67)">
          <g id="Group_27-4" data-name="Group 27" transform="translate(-106.955 -2.875)" clip-path="url(#clip-path-50)">
            <path id="Path_277-3" data-name="Path 277" d="M74.775-293H65v10.925h9.775Z" transform="translate(39.08 293)"/>
          </g>
        </g>
      </g>
      <g id="Group_107" data-name="Group 107" transform="translate(69.474 73.767)">
        <g id="Group_16-4" data-name="Group 16" transform="translate(7.475 8.05)" clip-path="url(#clip-path-69)">
          <g id="Group_15-4" data-name="Group 15" transform="translate(-109.83 -110.405)" clip-path="url(#clip-path-70)">
            <path id="Path_259-4" data-name="Path 259" d="M70.625-285.95H62V-294h8.625Z" transform="translate(44.955 401.53)"/>
          </g>
        </g>
        <g id="Group_12-4" data-name="Group 12" transform="translate(5.175 8.05)" clip-path="url(#clip-path-71)">
          <g id="Group_11-4" data-name="Group 11" transform="translate(-107.53 -110.405)" clip-path="url(#clip-path-70)">
            <path id="Path_253-4" data-name="Path 253" d="M74.2-285.525H65V-293h9.2Z" transform="translate(39.655 400.53)"/>
          </g>
        </g>
        <g id="Group_8-4" data-name="Group 8" transform="translate(6.325 5.175)" clip-path="url(#clip-path-73)">
          <g id="Group_7-4" data-name="Group 7" transform="translate(-108.68 -107.53)" clip-path="url(#clip-path-70)">
            <path id="Path_247-4" data-name="Path 247" d="M70.5-281.8H59V-291H70.5Z" transform="translate(46.805 395.655)"/>
          </g>
        </g>
        <g id="Group_10-4" data-name="Group 10" transform="translate(0 2.3)" clip-path="url(#clip-path-75)">
          <g id="Group_9-4" data-name="Group 9" transform="translate(-102.355 -104.655)" clip-path="url(#clip-path-70)">
            <path id="Path_250-4" data-name="Path 250" d="M82.35-277.649H72V-288H82.35Z" transform="translate(27.48 389.78)"/>
          </g>
        </g>
        <g id="Group_14-4" data-name="Group 14" transform="translate(8.625)" clip-path="url(#clip-path-77)">
          <g id="Group_13-4" data-name="Group 13" transform="translate(-110.98 -102.355)" clip-path="url(#clip-path-70)">
            <path id="Path_256-4" data-name="Path 256" d="M65.651-273.65H53V-284H65.651Z" transform="translate(55.105 383.479)"/>
          </g>
        </g>
        <g id="Group_18-4" data-name="Group 18" transform="translate(8.05 6.325)" clip-path="url(#clip-path-79)">
          <g id="Group_17-4" data-name="Group 17" transform="translate(-110.405 -108.68)" clip-path="url(#clip-path-70)">
            <path id="Path_262-4" data-name="Path 262" d="M67.5-285.074H56V-296H67.5Z" transform="translate(51.53 401.805)"/>
          </g>
        </g>
        <g id="Group_20-4" data-name="Group 20" transform="translate(4.6 0.575)" clip-path="url(#clip-path-81)">
          <g id="Group_19-4" data-name="Group 19" transform="translate(-106.955 -102.93)" clip-path="url(#clip-path-70)">
            <path id="Path_265-4" data-name="Path 265" d="M70.526-275.5H55V-287H70.526Z" transform="translate(49.08 387.055)"/>
          </g>
        </g>
        <g id="Group_22-4" data-name="Group 22" transform="translate(1.725 4.025)" clip-path="url(#clip-path-83)">
          <g id="Group_21-4" data-name="Group 21" transform="translate(-104.08 -106.38)" clip-path="url(#clip-path-70)">
            <path id="Path_268-4" data-name="Path 268" d="M78.5-282.774H67V-296H78.5Z" transform="translate(34.205 399.505)"/>
          </g>
        </g>
        <g id="Group_24-4" data-name="Group 24" transform="translate(5.175 2.875)" clip-path="url(#clip-path-85)">
          <g id="Group_23-4" data-name="Group 23" transform="translate(-107.53 -105.23)" clip-path="url(#clip-path-70)">
            <path id="Path_271-4" data-name="Path 271" d="M74.2-277.8H65V-287h9.2Z" transform="translate(39.655 389.355)"/>
          </g>
        </g>
        <g id="Group_28-4" data-name="Group 28" transform="translate(4.6 4.6)" clip-path="url(#clip-path-87)">
          <g id="Group_27-5" data-name="Group 27" transform="translate(-106.955 -106.955)" clip-path="url(#clip-path-70)">
            <path id="Path_277-4" data-name="Path 277" d="M74.775-282.074H65V-293h9.775Z" transform="translate(39.08 397.08)"/>
          </g>
        </g>
      </g>
    </g>
  </g>
</svg>
