<svg xmlns="http://www.w3.org/2000/svg" width="13.573" height="109.53" viewBox="0 0 13.573 109.53">
  <g id="Pen" transform="translate(-242.872 -290.131)">
    <path id="Path_1270" data-name="Path 1270" d="M435.117,141.609h8.859v-82.6h-8.859Z" transform="translate(-191.45 239.185)" fill="#48a9c6"/>
    <g id="Group_689" data-name="Group 689" transform="translate(242.874 290.131)">
      <path id="Path_1271" data-name="Path 1271" d="M439.553,308.985l4.424-17.6h-8.858Z" transform="translate(-434.325 -200.726)" fill="#0e7886"/>
      <path id="Path_1272" data-name="Path 1272" d="M435.5,36.332h5.223a2.88,2.88,0,0,1,2.61,3.075v38.4H432.885v-38.4A2.88,2.88,0,0,1,435.5,36.332Z" transform="translate(-432.885 -36.332)" fill="#0e7886"/>
    </g>
    <path id="Path_1273" data-name="Path 1273" d="M444.433,330.2h.368l1.473-7.868h-3.3Z" transform="translate(-196.512 69.461)" fill="#fff"/>
    <g id="Group_690" data-name="Group 690" transform="translate(242.872 296.757)">
      <path id="Path_1274" data-name="Path 1274" d="M432.885,54.973l12.764.1.8.005V84.912l-.149.249L445.094,87.2c-.621.946-1.913.22-1.317-1.084l1.062-1.787V56.957l-11.961-.092.007-1.892h0Z" transform="translate(-432.879 -54.973)" fill="#48a9c6"/>
    </g>
  </g>
</svg>
