<svg id="search" xmlns="http://www.w3.org/2000/svg" width="38.196" height="38.196" viewBox="0 0 38.196 38.196">
  <path id="Path_1256" data-name="Path 1256" d="M8.465,151.035,7.135,156l-4.859.1a19.131,19.131,0,0,1-.141-17.834h0l4.326.793,1.9,4.3a11.4,11.4,0,0,0,.107,7.674Z" transform="translate(0 -127.953)" fill="#fbbb00"/>
  <path id="Path_1257" data-name="Path 1257" d="M279.972,208.176a19.091,19.091,0,0,1-6.808,18.461h0l-5.449-.278-.771-4.814a11.382,11.382,0,0,0,4.9-5.812H261.628v-7.555h18.344Z" transform="translate(-242.11 -192.646)" fill="#518ef8"/>
  <path id="Path_1258" data-name="Path 1258" d="M59.286,320.317h0a19.1,19.1,0,0,1-28.778-5.843l6.189-5.066a11.358,11.358,0,0,0,16.368,5.815Z" transform="translate(-28.233 -286.327)" fill="#28b446"/>
  <path id="Path_1259" data-name="Path 1259" d="M57.777,4.4,51.59,9.462a11.357,11.357,0,0,0-16.743,5.947l-6.222-5.094h0A19.1,19.1,0,0,1,57.777,4.4Z" transform="translate(-26.489)" fill="#f14336"/>
</svg>
