<svg xmlns="http://www.w3.org/2000/svg" width="110.983" height="138.651" viewBox="0 0 110.983 138.651">
  <g id="Note" transform="translate(-124.507 -311.682)">
    <path id="Path_1263" data-name="Path 1263" d="M99.889,96.961H210.872v138.65H99.89V96.962Z" transform="translate(24.618 214.721)" fill="#33a8c9"/>
    <path id="Path_1264" data-name="Path 1264" d="M124.548,110H218V233.779H123.67L124.548,110Z" transform="translate(8.724 209.318)" fill="#fff"/>
    <g id="Group_688" data-name="Group 688" transform="translate(154.342 338.526)">
      <path id="Path_1267" data-name="Path 1267" d="M218.622,164.041h52.056v2.8H218.622Zm0,13.237H255.4v2.8H218.622Zm0-6.619h52.056v2.8H218.622Z" transform="translate(-218.622 -164.041)" fill="#d0d1d4"/>
      <path id="Path_1268" data-name="Path 1268" d="M218.622,261.388h52.056v2.8H218.622Zm0,13.237H255.4v2.8H218.622Zm0-6.618h52.056v2.8H218.622Z" transform="translate(-218.622 -226.785)" fill="#d0d1d4"/>
      <path id="Path_1269" data-name="Path 1269" d="M218.622,358.732h52.056v2.8H218.622Zm0,13.237H255.4v2.8H218.622Zm0-6.619h52.056v2.8H218.622Z" transform="translate(-218.622 -289.527)" fill="#d0d1d4"/>
    </g>
  </g>
</svg>
